<svg width="15" height="15" viewBox="0 0 15 15" fill="none" xmlns="http://www.w3.org/2000/svg">
<path d="M5.12445 13.7236C4.93087 13.605 5.00993 13.3762 5.05335 13.2504C5.05406 13.2481 5.05477 13.2458 5.05548 13.2434C5.06577 13.2136 5.06844 13.1853 5.07135 13.1522C5.0783 13.0733 5.08773 12.9667 5.21113 12.7441C5.20658 12.6794 5.20411 12.6146 5.20411 12.5499C5.20411 11.8506 5.36506 11.1513 5.55781 10.4521C5.55682 10.4432 5.55579 10.4342 5.55476 10.4252C5.53478 10.2498 5.51006 10.0323 5.5807 9.89565C5.67051 9.72192 5.75384 9.60392 5.82576 9.50701C5.98085 8.95159 6.11944 8.39616 6.17672 7.84075C6.19467 7.66667 6.20449 7.49257 6.20449 7.3185C6.20449 7.1582 6.19835 6.99786 6.18679 6.83756C6.14466 6.7442 6.09461 6.65545 6.04824 6.57314C5.98308 6.45749 5.92521 6.35452 5.90633 6.26947C5.86084 6.06456 5.93264 5.83212 5.98598 5.6595C5.9947 5.63129 6.00295 5.60466 6.01009 5.58002C5.98367 5.44293 5.95538 5.30581 5.92647 5.16872C5.94256 5.15957 5.95933 5.15035 5.97652 5.14097C6.19109 5.02397 6.18834 4.88014 6.18435 4.65374C6.18261 4.55515 6.18073 4.44088 6.19625 4.30635C6.20625 4.21967 6.29133 4.17514 6.36074 4.13876C6.38116 4.12805 6.40025 4.11802 6.41568 4.10786C6.46852 4.07303 6.41141 4.03632 6.34396 3.99296C6.25645 3.9367 6.15135 3.8692 6.2463 3.78004C6.54885 3.49593 6.34359 3.37074 6.18832 3.27604C6.14277 3.24826 6.10162 3.22308 6.07876 3.19731C6.00466 3.11372 6.07807 2.99463 6.17886 2.90463C6.25877 2.83326 6.17955 2.69047 6.07876 2.58219C6.04065 2.54124 6.03969 2.48587 6.03878 2.42065C6.03784 2.35317 6.03698 2.27508 5.99422 2.19154C5.88617 1.98044 5.8338 1.86826 5.79189 1.77807C5.77994 1.75236 5.76905 1.72841 5.75771 1.70448C5.72184 1.62888 5.6923 1.53506 5.66249 1.44007C5.62682 1.32639 5.59059 1.21102 5.54225 1.12324C5.59341 0.895709 5.65671 0.668159 5.71986 0.440655C5.75265 0.323793 5.93731 0.211666 6.24172 0.129032C6.54638 0.0464121 6.94364 6.35783e-06 7.35533 0C7.76703 -1.58946e-06 8.16426 0.0464169 8.46894 0.129032C8.77335 0.211666 8.95832 0.323793 8.9911 0.440655C9.05645 0.676074 9.12184 0.911543 9.17391 1.14698C9.23733 1.43379 9.28103 1.72061 9.28103 2.00741C9.28103 2.20804 9.27121 2.40868 9.25356 2.60931C9.25174 2.62997 9.24974 2.65062 9.24776 2.67128C9.34913 2.83983 9.44134 3.00806 9.47421 3.12658C9.50133 3.22445 9.44724 3.29579 9.40096 3.3569C9.36912 3.39894 9.34094 3.43615 9.34542 3.4738C9.34783 3.49401 9.35408 3.52163 9.36159 3.55494C9.39227 3.69092 9.44434 3.92188 9.34542 4.13258C9.30152 4.22607 9.21501 4.33467 9.1324 4.43836C9.01428 4.58662 8.90419 4.72488 8.938 4.79467C8.99742 4.91724 8.94713 5.0578 8.9026 5.182C8.86013 5.30047 8.82304 5.40408 8.89161 5.46301C8.97359 5.53342 8.94018 5.59346 8.8907 5.68274C8.85638 5.74465 8.81449 5.82064 8.79762 5.92392C8.77815 6.04315 8.72072 6.12751 8.67188 6.19921C8.60316 6.30012 8.55149 6.37604 8.64655 6.4892C8.75217 6.6149 8.81939 6.74628 8.78602 6.84975C8.77082 6.89687 8.77452 6.95078 8.77839 7.00687C8.78352 7.08113 8.78883 7.15924 8.75093 7.23055C8.71969 7.28932 8.63977 7.33789 8.56904 7.38087C8.54697 7.39428 8.52591 7.40714 8.50739 7.41961C8.50841 7.46641 8.50991 7.51322 8.51227 7.56002C8.52514 7.5676 8.53938 7.57557 8.55408 7.58389C8.62786 7.62562 8.71834 7.67692 8.76344 7.74044C8.83479 7.84097 8.79011 7.92919 8.74269 8.02225C8.70576 8.0947 8.66722 8.17009 8.68104 8.25651C8.69047 8.31544 8.72314 8.38254 8.7555 8.44906C8.80357 8.54785 8.85088 8.6454 8.82081 8.71319C8.80954 8.73859 8.75935 8.76042 8.70942 8.78202C8.70912 8.78212 8.70881 8.78222 8.70851 8.78231C8.70511 8.78378 8.70181 8.78525 8.69843 8.78672C8.73668 8.95179 8.77884 9.11688 8.82325 9.28196C8.83615 9.29626 8.84888 9.31072 8.8614 9.32505C8.92261 9.39505 8.98206 9.46306 9.06648 9.50741C9.15799 9.55547 9.21119 9.6763 9.26729 9.80364C9.30403 9.88703 9.34197 9.97324 9.39272 10.0436C9.42238 10.0848 9.37067 10.1238 9.31734 10.164C9.26759 10.2014 9.21652 10.2399 9.22915 10.2819C9.23548 10.303 9.2569 10.3258 9.27981 10.35C9.29997 10.3714 9.32134 10.394 9.33443 10.4177C9.34656 10.4397 9.31839 10.4886 9.28255 10.5514C9.2604 10.5902 9.23539 10.6343 9.2148 10.6805C9.24703 10.8028 9.27793 10.9251 9.30666 11.0474C9.352 11.073 9.41086 11.0951 9.48641 11.1126C9.54062 11.1252 9.60542 11.1359 9.67166 11.1469C9.7618 11.1619 9.85495 11.1773 9.92923 11.1987C9.98727 11.2154 10.0104 11.235 9.9863 11.2482C9.97506 11.2544 9.95388 11.2591 9.93472 11.2634C9.91278 11.2683 9.89327 11.2727 9.89383 11.278C9.89427 11.2819 9.90981 11.2859 9.92862 11.2909C9.95866 11.2987 9.99743 11.309 9.99881 11.3246C10.0039 11.3827 9.99153 11.4488 9.97928 11.5134C9.96566 11.5854 9.95244 11.6557 9.96402 11.7117C9.977 11.7745 9.91931 11.8639 9.86179 11.9535C9.82166 12.016 9.78173 12.0785 9.76535 12.1322C9.7493 12.1848 9.78121 12.2396 9.81235 12.2927C9.84972 12.3564 9.88583 12.4176 9.83524 12.4697C9.82496 12.4802 9.76242 12.4933 9.68417 12.5097C9.62871 12.5213 9.56531 12.5347 9.50686 12.5499C9.50686 12.6161 9.50429 12.6824 9.49954 12.7487C9.50802 12.751 9.51666 12.7534 9.52548 12.7558C9.52568 12.7559 9.52588 12.7559 9.52609 12.7559C9.7251 12.8103 9.99733 12.8848 9.83493 12.9894C9.79365 13.016 9.71739 13.0328 9.64877 13.0479C9.58137 13.0627 9.52107 13.0759 9.50839 13.0953C9.49402 13.1173 9.53541 13.1433 9.58041 13.1716C9.6436 13.2114 9.7142 13.2559 9.64846 13.3004C9.64398 13.3035 9.63905 13.3068 9.63412 13.3102C9.58736 13.3425 9.51819 13.3903 9.37899 13.4379C9.34183 13.5792 9.29832 13.7205 9.25081 13.8617C9.17163 14.0972 9.08134 14.3327 8.9911 14.5681C8.94669 14.6826 8.75712 14.7925 8.45368 14.8735C8.14981 14.9545 7.75927 15 7.35533 15C6.95142 15 6.56114 14.9545 6.25729 14.8735C5.95382 14.7925 5.76428 14.6826 5.71986 14.5681C5.64827 14.3813 5.57658 14.1945 5.51051 14.0077C5.50212 13.9979 5.49401 13.9881 5.4864 13.9783C5.4298 13.9055 5.31611 13.8379 5.20228 13.7703C5.17613 13.7547 5.14992 13.7392 5.12445 13.7236Z" fill="#B84739"/>
<path d="M13.7236 9.87555C13.605 10.0691 13.3762 9.99007 13.2504 9.94665C13.2481 9.94594 13.2458 9.94523 13.2434 9.94452C13.2136 9.93423 13.1853 9.93156 13.1522 9.92865C13.0733 9.9217 12.9667 9.91227 12.7441 9.78888C12.6794 9.79342 12.6146 9.79589 12.5499 9.79589C11.8506 9.79589 11.1513 9.63494 10.4521 9.44219C10.4432 9.44318 10.4342 9.44421 10.4252 9.44524C10.2498 9.46522 10.0323 9.48994 9.89565 9.4193C9.72192 9.32949 9.60392 9.24616 9.50701 9.17424C8.95159 9.01915 8.39616 8.88056 7.84075 8.82328C7.66667 8.80533 7.49257 8.79551 7.3185 8.79551C7.1582 8.79551 6.99786 8.80166 6.83756 8.81321C6.7442 8.85534 6.65545 8.90539 6.57314 8.95176C6.45749 9.01692 6.35452 9.07479 6.26947 9.09367C6.06456 9.13916 5.83212 9.06736 5.6595 9.01402C5.63129 9.0053 5.60466 8.99705 5.58002 8.98991C5.44293 9.01633 5.30581 9.04462 5.16872 9.07353C5.15957 9.05744 5.15035 9.04067 5.14097 9.02348C5.02397 8.80891 4.88014 8.81166 4.65374 8.81565C4.55515 8.81739 4.44088 8.81927 4.30635 8.80375C4.21967 8.79375 4.17514 8.70867 4.13876 8.63926C4.12805 8.61884 4.11802 8.59975 4.10786 8.58432C4.07303 8.53148 4.03632 8.58859 3.99296 8.65604C3.9367 8.74355 3.8692 8.84865 3.78004 8.7537C3.49593 8.45115 3.37074 8.65641 3.27604 8.81168C3.24826 8.85723 3.22308 8.89838 3.19731 8.92124C3.11372 8.99534 2.99463 8.92193 2.90463 8.82114C2.83326 8.74123 2.69047 8.82045 2.58219 8.92124C2.54124 8.95935 2.48587 8.96031 2.42065 8.96122C2.35317 8.96216 2.27508 8.96302 2.19154 9.00578C1.98044 9.11383 1.86826 9.1662 1.77807 9.20811C1.75236 9.22006 1.72841 9.23095 1.70448 9.24229C1.62888 9.27816 1.53506 9.3077 1.44007 9.33751C1.32639 9.37318 1.21102 9.40941 1.12324 9.45775C0.895709 9.40659 0.668159 9.34329 0.440655 9.28014C0.323793 9.24735 0.211667 9.06269 0.129032 8.75828C0.0464123 8.45362 6.52775e-06 8.05636 2.0591e-07 7.64467C-1.34756e-06 7.23297 0.0464172 6.83574 0.129032 6.53106C0.211667 6.22665 0.323793 6.04168 0.440655 6.0089C0.676074 5.94355 0.911543 5.87816 1.14698 5.82609C1.43379 5.76267 1.72061 5.71897 2.00741 5.71897C2.20804 5.71898 2.40868 5.72879 2.60931 5.74644C2.62997 5.74826 2.65062 5.75026 2.67128 5.75224C2.83983 5.65087 3.00806 5.55866 3.12658 5.52579C3.22445 5.49867 3.29579 5.55276 3.3569 5.59904C3.39895 5.63088 3.43615 5.65906 3.4738 5.65458C3.49401 5.65217 3.52163 5.64592 3.55494 5.63841C3.69092 5.60773 3.92188 5.55566 4.13258 5.65458C4.22607 5.69848 4.33467 5.78499 4.43836 5.8676C4.58662 5.98572 4.72488 6.09581 4.79467 6.062C4.91724 6.00258 5.0578 6.05287 5.182 6.0974C5.30047 6.13988 5.40408 6.17697 5.46301 6.10839C5.53342 6.02641 5.59346 6.05982 5.68274 6.1093C5.74465 6.14362 5.82064 6.18552 5.92392 6.20238C6.04315 6.22185 6.12751 6.27928 6.19921 6.32812C6.30012 6.39684 6.37604 6.44852 6.4892 6.35345C6.6149 6.24783 6.74628 6.18061 6.84975 6.21398C6.89687 6.22918 6.95078 6.22548 7.00687 6.22161C7.08113 6.21648 7.15924 6.21117 7.23055 6.24907C7.28932 6.28031 7.33789 6.36023 7.38087 6.43096C7.39428 6.45303 7.40714 6.47409 7.41961 6.49261C7.46641 6.49159 7.51322 6.49009 7.56002 6.48773C7.5676 6.47486 7.57557 6.46062 7.58389 6.44592C7.62562 6.37214 7.67692 6.28166 7.74044 6.23656C7.84097 6.16521 7.92919 6.20989 8.02225 6.25731C8.0947 6.29424 8.17009 6.33278 8.25651 6.31896C8.31544 6.30953 8.38254 6.27686 8.44906 6.2445C8.54785 6.19643 8.6454 6.14912 8.71319 6.17919C8.73859 6.19046 8.76042 6.24065 8.78203 6.29058C8.78212 6.29089 8.78222 6.29119 8.78231 6.2915C8.78378 6.29489 8.78525 6.29819 8.78672 6.30157C8.95179 6.26332 9.11688 6.22116 9.28196 6.17675C9.29626 6.16385 9.31072 6.15113 9.32505 6.1386C9.39505 6.07739 9.46306 6.01794 9.50741 5.93352C9.55547 5.84201 9.6763 5.78881 9.80364 5.73271C9.88703 5.69597 9.97324 5.65803 10.0436 5.60728C10.0848 5.57762 10.1238 5.62933 10.164 5.68266C10.2014 5.73241 10.2399 5.78348 10.2819 5.77086C10.303 5.76452 10.3258 5.7431 10.35 5.7202C10.3714 5.70003 10.394 5.67866 10.4177 5.66557C10.4397 5.65344 10.4886 5.68161 10.5514 5.71745C10.5902 5.7396 10.6343 5.76461 10.6805 5.7852C10.8028 5.75297 10.9251 5.72207 11.0474 5.69334C11.073 5.648 11.0951 5.58914 11.1126 5.51359C11.1252 5.45938 11.1359 5.39458 11.1469 5.32834C11.1619 5.2382 11.1773 5.14505 11.1987 5.07077C11.2154 5.01273 11.235 4.9896 11.2482 5.0137C11.2544 5.02494 11.2591 5.04612 11.2634 5.06528C11.2683 5.08722 11.2727 5.10673 11.278 5.10617C11.2819 5.10573 11.2859 5.09019 11.2909 5.07138C11.2987 5.04134 11.309 5.00257 11.3246 5.00119C11.3827 4.99606 11.4488 5.00847 11.5134 5.02072C11.5854 5.03434 11.6557 5.04756 11.7117 5.03598C11.7745 5.023 11.8639 5.08069 11.9535 5.13821C12.016 5.17834 12.0785 5.21827 12.1322 5.23465C12.1848 5.2507 12.2396 5.21879 12.2927 5.18765C12.3564 5.15028 12.4176 5.11417 12.4697 5.16477C12.4802 5.17504 12.4933 5.23758 12.5097 5.31583C12.5213 5.37129 12.5347 5.43469 12.5499 5.49314C12.6161 5.49314 12.6824 5.49571 12.7487 5.50047C12.751 5.49198 12.7534 5.48334 12.7558 5.47452C12.7559 5.47432 12.7559 5.47412 12.7559 5.47391C12.8103 5.2749 12.8848 5.00267 12.9894 5.16507C13.016 5.20636 13.0328 5.28261 13.0479 5.35123C13.0627 5.41863 13.0759 5.47894 13.0953 5.49161C13.1173 5.50598 13.1433 5.46459 13.1716 5.41959C13.2114 5.35641 13.2559 5.2858 13.3004 5.35154C13.3035 5.35602 13.3068 5.36095 13.3102 5.36588C13.3425 5.41264 13.3903 5.48181 13.4379 5.62101C13.5792 5.65817 13.7205 5.70169 13.8617 5.74919C14.0972 5.82837 14.3327 5.91866 14.5681 6.0089C14.6826 6.05331 14.7925 6.24288 14.8735 6.54632C14.9545 6.8502 15 7.24073 15 7.64467C15 8.04858 14.9545 8.43886 14.8735 8.74271C14.7925 9.04618 14.6826 9.23572 14.5681 9.28014C14.3813 9.35173 14.1945 9.42342 14.0077 9.48949C13.9979 9.49788 13.9881 9.506 13.9783 9.5136C13.9055 9.5702 13.8379 9.68389 13.7703 9.79773C13.7547 9.82387 13.7392 9.85008 13.7236 9.87555Z" fill="#B84739"/>
</svg>
