<svg width="15" height="5" viewBox="0 0 15 5" fill="none" xmlns="http://www.w3.org/2000/svg">
<path d="M13.7236 4.87555C13.605 5.06913 13.3762 4.99007 13.2504 4.94665C13.2481 4.94594 13.2458 4.94523 13.2434 4.94452C13.2136 4.93423 13.1853 4.93156 13.1522 4.92865C13.0733 4.9217 12.9667 4.91227 12.7441 4.78888C12.6794 4.79342 12.6146 4.79589 12.5499 4.79589C11.8506 4.79589 11.1513 4.63494 10.4521 4.44219C10.4432 4.44318 10.4342 4.44421 10.4252 4.44524C10.2498 4.46522 10.0323 4.48994 9.89565 4.4193C9.72192 4.32949 9.60392 4.24616 9.50701 4.17424C8.95159 4.01915 8.39616 3.88056 7.84075 3.82328C7.66667 3.80533 7.49257 3.79551 7.3185 3.79551C7.1582 3.79551 6.99786 3.80166 6.83756 3.81321C6.7442 3.85534 6.65545 3.90539 6.57314 3.95176C6.45749 4.01692 6.35452 4.07479 6.26947 4.09367C6.06456 4.13916 5.83212 4.06736 5.6595 4.01402C5.63129 4.0053 5.60466 3.99705 5.58002 3.98991C5.44293 4.01633 5.30581 4.04462 5.16872 4.07353C5.15957 4.05744 5.15035 4.04067 5.14097 4.02348C5.02397 3.80891 4.88014 3.81166 4.65374 3.81565C4.55515 3.81739 4.44088 3.81927 4.30635 3.80375C4.21967 3.79375 4.17514 3.70867 4.13876 3.63926C4.12805 3.61884 4.11802 3.59975 4.10786 3.58432C4.07303 3.53148 4.03632 3.58859 3.99296 3.65604C3.9367 3.74355 3.8692 3.84865 3.78004 3.7537C3.49593 3.45115 3.37074 3.65641 3.27604 3.81168C3.24826 3.85723 3.22308 3.89838 3.19731 3.92124C3.11372 3.99534 2.99463 3.92193 2.90463 3.82114C2.83326 3.74123 2.69047 3.82045 2.58219 3.92124C2.54124 3.95935 2.48587 3.96031 2.42065 3.96122C2.35317 3.96216 2.27508 3.96302 2.19154 4.00578C1.98044 4.11383 1.86826 4.1662 1.77807 4.20811C1.75236 4.22006 1.72841 4.23095 1.70448 4.24229C1.62888 4.27816 1.53506 4.3077 1.44007 4.33751C1.32639 4.37318 1.21102 4.40941 1.12324 4.45775C0.895709 4.40659 0.668159 4.34329 0.440655 4.28014C0.323793 4.24735 0.211667 4.06269 0.129032 3.75828C0.0464123 3.45362 6.52775e-06 3.05636 2.0591e-07 2.64467C-1.34756e-06 2.23297 0.0464172 1.83574 0.129032 1.53106C0.211667 1.22665 0.323793 1.04168 0.440655 1.0089C0.676074 0.943547 0.911543 0.878159 1.14698 0.826093C1.43379 0.762671 1.72061 0.718974 2.00741 0.718974C2.20804 0.718975 2.40868 0.728794 2.60931 0.74644C2.62997 0.748258 2.65062 0.750261 2.67128 0.752239C2.83983 0.650866 3.00806 0.558662 3.12658 0.525795C3.22445 0.498665 3.29579 0.552764 3.3569 0.599038C3.39895 0.630882 3.43615 0.659065 3.4738 0.654581C3.49401 0.652173 3.52163 0.645919 3.55494 0.638406C3.69092 0.60773 3.92188 0.555664 4.13258 0.654581C4.22607 0.698478 4.33467 0.784992 4.43836 0.867598C4.58662 0.985716 4.72488 1.09581 4.79467 1.062C4.91724 1.00258 5.0578 1.05287 5.182 1.0974C5.30047 1.13988 5.40408 1.17697 5.46301 1.10839C5.53342 1.02641 5.59346 1.05982 5.68274 1.1093C5.74465 1.14362 5.82064 1.18552 5.92392 1.20238C6.04315 1.22185 6.12751 1.27928 6.19921 1.32812C6.30012 1.39684 6.37604 1.44852 6.4892 1.35345C6.6149 1.24783 6.74628 1.18061 6.84975 1.21398C6.89687 1.22918 6.95078 1.22548 7.00687 1.22161C7.08113 1.21648 7.15924 1.21117 7.23055 1.24907C7.28932 1.28031 7.33789 1.36023 7.38087 1.43096C7.39428 1.45303 7.40714 1.47409 7.41961 1.49261C7.46641 1.49159 7.51322 1.49009 7.56002 1.48773C7.5676 1.47486 7.57557 1.46062 7.58389 1.44592C7.62562 1.37214 7.67692 1.28166 7.74044 1.23656C7.84097 1.16521 7.92919 1.20989 8.02225 1.25731C8.0947 1.29424 8.17009 1.33278 8.25651 1.31896C8.31544 1.30953 8.38254 1.27686 8.44906 1.2445C8.54785 1.19643 8.6454 1.14912 8.71319 1.17919C8.73859 1.19046 8.76042 1.24065 8.78203 1.29058C8.78212 1.29089 8.78222 1.29119 8.78231 1.2915C8.78378 1.29489 8.78525 1.29819 8.78672 1.30157C8.95179 1.26332 9.11688 1.22116 9.28196 1.17675C9.29626 1.16385 9.31072 1.15113 9.32505 1.1386C9.39505 1.07739 9.46306 1.01794 9.50741 0.933518C9.55547 0.84201 9.6763 0.788807 9.80364 0.732708C9.88703 0.695971 9.97324 0.658035 10.0436 0.607279C10.0848 0.577616 10.1238 0.629332 10.164 0.682658C10.2014 0.732413 10.2399 0.783477 10.2819 0.770856C10.303 0.76452 10.3258 0.743104 10.35 0.720195C10.3714 0.700031 10.394 0.67866 10.4177 0.665568C10.4397 0.653444 10.4886 0.681611 10.5514 0.717449C10.5902 0.739597 10.6343 0.764612 10.6805 0.785199C10.8028 0.752972 10.9251 0.722069 11.0474 0.69334C11.073 0.647996 11.0951 0.589143 11.1126 0.513588C11.1252 0.45938 11.1359 0.394584 11.1469 0.328343C11.1619 0.238201 11.1773 0.145048 11.1987 0.0707696C11.2154 0.0127281 11.235 -0.0103995 11.2482 0.0137008C11.2544 0.0249413 11.2591 0.0461219 11.2634 0.0652765C11.2683 0.0872172 11.2727 0.106731 11.278 0.106171C11.2819 0.105729 11.2859 0.0901893 11.2909 0.07138C11.2987 0.0413435 11.309 0.00256715 11.3246 0.00118814C11.3827 -0.00393929 11.4488 0.00846993 11.5134 0.0207199C11.5854 0.0343407 11.6557 0.0475572 11.7117 0.0359792C11.7745 0.0230011 11.8639 0.0806941 11.9535 0.138215C12.016 0.178342 12.0785 0.218268 12.1322 0.234652C12.1848 0.250705 12.2396 0.218793 12.2927 0.187654C12.3564 0.150277 12.4176 0.114171 12.4697 0.164766C12.4802 0.17504 12.4933 0.237584 12.5097 0.315831C12.5213 0.371286 12.5347 0.434693 12.5499 0.493141C12.6161 0.493141 12.6824 0.495709 12.7487 0.500465C12.751 0.491979 12.7534 0.483345 12.7558 0.474525C12.7559 0.474321 12.7559 0.474118 12.7559 0.473915C12.8103 0.274897 12.8848 0.00267028 12.9894 0.165071C13.016 0.206356 13.0328 0.282607 13.0479 0.351232C13.0627 0.418627 13.0759 0.478935 13.0953 0.491615C13.1173 0.505978 13.1433 0.464593 13.1716 0.419592C13.2114 0.356405 13.2559 0.285802 13.3004 0.351537C13.3035 0.356024 13.3068 0.360949 13.3102 0.36588C13.3425 0.412643 13.3903 0.481809 13.4379 0.621012C13.5792 0.658172 13.7205 0.701685 13.8617 0.749188C14.0972 0.828373 14.3327 0.918659 14.5681 1.0089C14.6826 1.05331 14.7925 1.24288 14.8735 1.54632C14.9545 1.8502 15 2.24073 15 2.64467C15 3.04858 14.9545 3.43886 14.8735 3.74271C14.7925 4.04618 14.6826 4.23572 14.5681 4.28014C14.3813 4.35173 14.1945 4.42342 14.0077 4.48949C13.9979 4.49788 13.9881 4.506 13.9783 4.5136C13.9055 4.5702 13.8379 4.68389 13.7703 4.79773C13.7547 4.82387 13.7392 4.85008 13.7236 4.87555Z" fill="#B84739"/>
</svg>
