<svg width="50" height="55" viewBox="0 0 50 55" fill="none" xmlns="http://www.w3.org/2000/svg">
<path d="M4.25472 0.248908C4.65016 -0.138258 5.41266 0.0198565 5.8321 0.106693C5.83979 0.108118 5.84749 0.109542 5.85518 0.110966C5.95472 0.131536 6.04889 0.136879 6.15921 0.142705C6.42228 0.156597 6.77771 0.175463 7.51953 0.422252C7.73537 0.413157 7.95124 0.408213 8.16708 0.408213C10.498 0.408216 12.8289 0.730124 15.1598 1.11562C15.1892 1.11364 15.2192 1.11159 15.2494 1.10952C15.8341 1.06957 16.559 1.02013 17.0145 1.1614C17.5936 1.34101 17.9869 1.50768 18.31 1.65152C20.1614 1.96171 22.0128 2.23888 23.8642 2.35344C24.4444 2.38934 25.0248 2.40898 25.605 2.40898C26.1393 2.40898 26.6738 2.39669 27.2081 2.37358C27.5193 2.28932 27.8152 2.18922 28.0895 2.09648C28.475 1.96616 28.8183 1.85042 29.1018 1.81266C29.7848 1.72168 30.5596 1.86527 31.135 1.97196C31.229 1.9894 31.3178 2.00591 31.3999 2.02018C31.8569 1.96734 32.3139 1.91076 32.7709 1.85294C32.8014 1.88511 32.8322 1.91866 32.8634 1.95304C33.2534 2.38217 33.7329 2.37667 34.4875 2.3687C34.8162 2.36523 35.1971 2.36147 35.6455 2.3925C35.9344 2.4125 36.0829 2.58265 36.2041 2.72149C36.2398 2.76233 36.2733 2.8005 36.3071 2.83135C36.4232 2.93704 36.5456 2.82282 36.6901 2.68792C36.8777 2.51291 37.1027 2.3027 37.3999 2.4926C38.3469 3.09769 38.7642 2.68719 39.0799 2.37663C39.1724 2.28554 39.2564 2.20323 39.3423 2.15751C39.6209 2.00931 40.0179 2.15615 40.3179 2.35771C40.5558 2.51754 41.0318 2.35909 41.3927 2.15751C41.5292 2.08129 41.7138 2.07938 41.9312 2.07756C42.1561 2.07567 42.4164 2.07396 42.6949 1.98844C43.3985 1.77234 43.7725 1.6676 44.0731 1.58377C44.1588 1.55987 44.2386 1.53811 44.3184 1.51541C44.5704 1.44369 44.8831 1.3846 45.1998 1.32498C45.5787 1.25363 45.9633 1.18119 46.2559 1.0845C47.0143 1.18682 47.7728 1.31342 48.5312 1.43973C48.9207 1.5053 49.2944 1.87462 49.5699 2.48345C49.8453 3.09277 50 3.88727 50 4.71066C50 5.53406 49.8453 6.32853 49.5699 6.93788C49.2944 7.54671 48.9207 7.91663 48.5312 7.98221C47.7464 8.11291 46.9615 8.24368 46.1767 8.34781C45.2207 8.47466 44.2646 8.56205 43.3086 8.56205C42.6399 8.56205 41.9711 8.54241 41.3023 8.50712C41.2335 8.50349 41.1646 8.49948 41.0957 8.49552C40.5339 8.69827 39.9731 8.88268 39.5781 8.94841C39.2518 9.00267 39.014 8.89447 38.8103 8.80193C38.6702 8.73824 38.5462 8.68187 38.4207 8.69084C38.3533 8.69565 38.2612 8.70816 38.1502 8.72319C37.6969 8.78454 36.9271 8.88867 36.2247 8.69084C35.9131 8.60304 35.5511 8.43002 35.2055 8.26481C34.7113 8.02857 34.2504 7.80838 34.0178 7.876C33.6092 7.99485 33.1407 7.89426 32.7267 7.8052C32.3318 7.72025 31.9864 7.64607 31.79 7.78323C31.5553 7.94719 31.3551 7.88036 31.0575 7.7814C30.8512 7.71276 30.5979 7.62897 30.2536 7.59524C29.8562 7.5563 29.575 7.44144 29.336 7.34377C28.9996 7.20631 28.7465 7.10297 28.3693 7.29311C27.9503 7.50435 27.5124 7.63877 27.1675 7.57204C27.0104 7.54164 26.8307 7.54903 26.6438 7.55678C26.3962 7.56705 26.1359 7.57766 25.8982 7.50185C25.7023 7.43937 25.5404 7.27953 25.3971 7.13808C25.3524 7.09395 25.3095 7.05182 25.268 7.01478C25.112 7.01682 24.9559 7.01982 24.7999 7.02455C24.7747 7.05028 24.7481 7.07877 24.7204 7.10817C24.5813 7.25571 24.4103 7.43669 24.1985 7.52688C23.8634 7.66959 23.5694 7.58022 23.2592 7.48537C23.0177 7.41152 22.7664 7.33445 22.4783 7.36208C22.2819 7.38094 22.0582 7.44628 21.8365 7.51101C21.5072 7.60714 21.182 7.70176 20.956 7.64162C20.8714 7.61908 20.7986 7.51871 20.7266 7.41884C20.7263 7.41823 20.726 7.41762 20.7256 7.41701C20.7207 7.41023 20.7158 7.40361 20.7109 7.39687C20.1607 7.47336 19.6104 7.55768 19.0601 7.64651C19.0124 7.67231 18.9643 7.69775 18.9165 7.7228C18.6832 7.84522 18.4565 7.96413 18.3086 8.13297C18.1484 8.31598 17.7457 8.42239 17.3212 8.53459C17.0432 8.60806 16.7559 8.68393 16.5213 8.78545C16.3841 8.84477 16.254 8.74134 16.1201 8.63469C15.9953 8.53518 15.867 8.43305 15.7269 8.45829C15.6566 8.47096 15.5808 8.51379 15.4999 8.55961C15.4286 8.59994 15.3533 8.64268 15.2744 8.66887C15.2011 8.69312 15.0379 8.63678 14.8287 8.5651C14.6994 8.52081 14.5524 8.47078 14.3982 8.4296C13.9906 8.49406 13.5828 8.55586 13.1752 8.61332C13.0902 8.70401 13.0164 8.82172 12.958 8.97283C12.916 9.08124 12.8804 9.21084 12.8437 9.34332C12.7938 9.5236 12.7422 9.70991 12.6711 9.85846C12.6155 9.97455 12.5499 10.0208 12.5059 9.9726C12.4854 9.95012 12.4697 9.90776 12.4554 9.86945C12.439 9.82557 12.4244 9.78654 12.4065 9.78766C12.3937 9.78854 12.3803 9.81962 12.3638 9.85724C12.3375 9.91732 12.3033 9.99487 12.2513 9.99763C12.0576 10.0079 11.8375 9.98306 11.6219 9.95856C11.3821 9.93132 11.1477 9.90489 10.961 9.92804C10.7518 9.954 10.4537 9.83861 10.1551 9.72357C9.94681 9.64332 9.7382 9.56347 9.55925 9.5307C9.38387 9.49859 9.20127 9.56242 9.02443 9.62469C8.81216 9.69945 8.60799 9.77166 8.43449 9.67047C8.3994 9.64992 8.35583 9.52484 8.30116 9.36834C8.26242 9.25743 8.21783 9.13062 8.16708 9.01372C7.94622 9.01372 7.72532 9.00858 7.50446 8.99907C7.49668 9.01604 7.48866 9.03331 7.48062 9.05095C7.48049 9.05136 7.48037 9.05177 7.48024 9.05217C7.29884 9.45021 7.0506 9.99466 6.70185 9.66986C6.6132 9.58729 6.55739 9.43479 6.50711 9.29754C6.45773 9.16275 6.41359 9.04213 6.34899 9.01677C6.27562 8.98805 6.18899 9.07082 6.09455 9.16082C5.96195 9.28719 5.81383 9.4284 5.66521 9.29693C5.65506 9.28795 5.64414 9.27811 5.63278 9.26824C5.52505 9.17472 5.36557 9.03639 5.20687 8.75798C4.73603 8.68366 4.26513 8.59663 3.79429 8.50163C3.00944 8.34326 2.22444 8.16268 1.43967 7.98221C1.05787 7.89337 0.691699 7.51425 0.421715 6.90736C0.151715 6.29961 0 5.51854 0 4.71066C2.25328e-05 3.90285 0.151735 3.12228 0.421715 2.51458C0.691701 1.90764 1.05785 1.52857 1.43967 1.43973C2.06226 1.29655 2.68505 1.15316 3.30772 1.02102C3.34036 1.00424 3.37313 0.988011 3.40576 0.972798C3.64849 0.859594 3.87371 0.632223 4.09908 0.404551C4.15085 0.352255 4.20271 0.299845 4.25472 0.248908Z" fill="black"/>
<path d="M45.7453 29.7511C45.3498 30.1383 44.5873 29.9801 44.1679 29.8933C44.1602 29.8919 44.1525 29.8905 44.1448 29.889C44.0453 29.8685 43.9511 29.8631 43.8408 29.8573C43.5777 29.8434 43.2223 29.8245 42.4805 29.5777C42.2646 29.5868 42.0488 29.5918 41.8329 29.5918C39.502 29.5918 37.1711 29.2699 34.8402 28.8844C34.8108 28.8864 34.7808 28.8884 34.7506 28.8905C34.1659 28.9304 33.441 28.9799 32.9855 28.8386C32.4064 28.659 32.0131 28.4923 31.69 28.3485C29.8386 28.0383 27.9872 27.7611 26.1358 27.6466C25.5556 27.6107 24.9752 27.591 24.395 27.591C23.8607 27.591 23.3262 27.6033 22.7919 27.6264C22.4807 27.7107 22.1848 27.8108 21.9105 27.9035C21.525 28.0338 21.1817 28.1496 20.8982 28.1873C20.2152 28.2783 19.4404 28.1347 18.865 28.028C18.771 28.0106 18.6822 27.9941 18.6001 27.9798C18.1431 28.0327 17.686 28.0892 17.2291 28.1471C17.1986 28.1149 17.1678 28.0813 17.1366 28.047C16.7466 27.6178 16.2671 27.6233 15.5125 27.6313C15.1838 27.6348 14.8029 27.6385 14.3545 27.6075C14.0656 27.5875 13.9171 27.4173 13.7959 27.2785C13.7602 27.2377 13.7267 27.1995 13.6929 27.1686C13.5768 27.063 13.4544 27.1772 13.3099 27.3121C13.1223 27.4871 12.8973 27.6973 12.6001 27.5074C11.6531 26.9023 11.2358 27.3128 10.9201 27.6234C10.8276 27.7145 10.7436 27.7968 10.6577 27.8425C10.3791 27.9907 9.98211 27.8438 9.68208 27.6423C9.4442 27.4825 8.96824 27.6409 8.60729 27.8425C8.47081 27.9187 8.28623 27.9206 8.06885 27.9224C7.84389 27.9243 7.5836 27.926 7.30515 28.0116C6.60148 28.2277 6.22752 28.3324 5.9269 28.4162C5.84118 28.4401 5.76136 28.4619 5.68161 28.4846C5.4296 28.5563 5.11685 28.6154 4.80022 28.675C4.42131 28.7464 4.03674 28.8188 3.74413 28.9155C2.9857 28.8132 2.2272 28.6866 1.46885 28.5603C1.07932 28.4947 0.705552 28.1254 0.430107 27.5166C0.154712 26.9072 2.6491e-05 26.1127 0 25.2893C-5.29819e-06 24.4659 0.154723 23.6715 0.430107 23.0621C0.705552 22.4533 1.07932 22.0834 1.46885 22.0178C2.25357 21.8871 3.03847 21.7563 3.82328 21.6522C4.77929 21.5253 5.73535 21.4379 6.69136 21.4379C7.36013 21.4379 8.02893 21.4576 8.6977 21.4929C8.76655 21.4965 8.83542 21.5005 8.90427 21.5045C9.46611 21.3017 10.0269 21.1173 10.4219 21.0516C10.7482 20.9973 10.986 21.1055 11.1897 21.1981C11.3298 21.2618 11.4538 21.3181 11.5793 21.3092C11.6467 21.3043 11.7388 21.2918 11.8498 21.2768C12.3031 21.2155 13.0729 21.1113 13.7753 21.3092C14.0869 21.397 14.4489 21.57 14.7945 21.7352C15.2888 21.9714 15.7496 22.1916 15.9822 22.124C16.3908 22.0052 16.8593 22.1057 17.2733 22.1948C17.6682 22.2797 18.0136 22.3539 18.21 22.2168C18.4447 22.0528 18.6449 22.1196 18.9425 22.2186C19.1488 22.2872 19.4021 22.371 19.7464 22.4048C20.1438 22.4437 20.425 22.5586 20.664 22.6562C21.0004 22.7937 21.2535 22.897 21.6307 22.7069C22.0497 22.4957 22.4876 22.3612 22.8325 22.428C22.9896 22.4584 23.1693 22.451 23.3562 22.4432C23.6038 22.433 23.8641 22.4223 24.1018 22.4981C24.2977 22.5606 24.4596 22.7205 24.6029 22.8619C24.6476 22.9061 24.6905 22.9482 24.732 22.9852C24.888 22.9832 25.0441 22.9802 25.2001 22.9755C25.2253 22.9497 25.2519 22.9212 25.2796 22.8918C25.4187 22.7443 25.5897 22.5633 25.8015 22.4731C26.1366 22.3304 26.4306 22.4198 26.7408 22.5146C26.9823 22.5885 27.2336 22.6656 27.5217 22.6379C27.7181 22.6191 27.9418 22.5537 28.1635 22.489C28.4928 22.3929 28.818 22.2982 29.044 22.3584C29.1286 22.3809 29.2014 22.4813 29.2734 22.5812C29.2737 22.5818 29.274 22.5824 29.2744 22.583C29.2793 22.5898 29.2842 22.5964 29.2891 22.6031C29.8393 22.5266 30.3896 22.4423 30.9399 22.3535C30.9876 22.3277 31.0357 22.3022 31.0835 22.2772C31.3168 22.1548 31.5435 22.0359 31.6914 21.867C31.8516 21.684 32.2543 21.5776 32.6788 21.4654C32.9568 21.3919 33.2441 21.3161 33.4787 21.2146C33.6159 21.1552 33.746 21.2587 33.8799 21.3653C34.0047 21.4648 34.133 21.567 34.2731 21.5417C34.3434 21.529 34.4192 21.4862 34.5001 21.4404C34.5714 21.4001 34.6467 21.3573 34.7256 21.3311C34.7989 21.3069 34.9621 21.3632 35.1713 21.4349C35.3006 21.4792 35.4476 21.5292 35.6018 21.5704C36.0094 21.5059 36.4172 21.4441 36.8248 21.3867C36.9098 21.296 36.9836 21.1783 37.042 21.0272C37.084 20.9188 37.1196 20.7892 37.1563 20.6567C37.2062 20.4764 37.2578 20.2901 37.3289 20.1415C37.3845 20.0255 37.4501 19.9792 37.4941 20.0274C37.5146 20.0499 37.5303 20.0922 37.5446 20.1306C37.561 20.1744 37.5756 20.2135 37.5935 20.2123C37.6063 20.2115 37.6197 20.1804 37.6362 20.1428C37.6625 20.0827 37.6967 20.0051 37.7487 20.0024C37.9424 19.9921 38.1625 20.0169 38.3781 20.0414C38.6179 20.0687 38.8523 20.0951 39.039 20.072C39.2482 20.046 39.5463 20.1614 39.8449 20.2764C40.0532 20.3567 40.2618 20.4365 40.4408 20.4693C40.6161 20.5014 40.7987 20.4376 40.9756 20.3753C41.1878 20.3006 41.392 20.2283 41.5655 20.3295C41.6006 20.3501 41.6442 20.4752 41.6988 20.6317C41.7376 20.7426 41.7822 20.8694 41.8329 20.9863C42.0538 20.9863 42.2747 20.9914 42.4955 21.0009C42.5033 20.984 42.5113 20.9667 42.5194 20.949C42.5195 20.9486 42.5196 20.9482 42.5198 20.9478C42.7012 20.5498 42.9494 20.0053 43.2981 20.3301C43.3868 20.4127 43.4426 20.5652 43.4929 20.7025C43.5423 20.8373 43.5864 20.9579 43.651 20.9832C43.7244 21.012 43.811 20.9292 43.9054 20.8392C44.0381 20.7128 44.1862 20.5716 44.3348 20.7031C44.3449 20.712 44.3559 20.7219 44.3672 20.7318C44.4749 20.8253 44.6344 20.9636 44.7931 21.242C45.264 21.3163 45.7349 21.4034 46.2057 21.4984C46.9906 21.6567 47.7756 21.8373 48.5603 22.0178C48.9421 22.1066 49.3083 22.4858 49.5783 23.0926C49.8483 23.7004 50 24.4815 50 25.2893C50 26.0972 49.8483 26.8777 49.5783 27.4854C49.3083 28.0924 48.9422 28.4714 48.5603 28.5603C47.9377 28.7035 47.3149 28.8468 46.6923 28.979C46.6596 28.9958 46.6269 29.012 46.5942 29.0272C46.3515 29.1404 46.1263 29.3678 45.9009 29.5954C45.8491 29.6477 45.7973 29.7002 45.7453 29.7511Z" fill="black"/>
<path d="M4.25472 40.2489C4.65016 39.8617 5.41266 40.0199 5.8321 40.1067C5.83979 40.1081 5.84749 40.1095 5.85518 40.111C5.95472 40.1315 6.04889 40.1369 6.15921 40.1427C6.42228 40.1566 6.77771 40.1755 7.51953 40.4223C7.73537 40.4132 7.95124 40.4082 8.16708 40.4082C10.498 40.4082 12.8289 40.7301 15.1598 41.1156C15.1892 41.1136 15.2192 41.1116 15.2494 41.1095C15.8341 41.0696 16.559 41.0201 17.0145 41.1614C17.5936 41.341 17.9869 41.5077 18.31 41.6515C20.1614 41.9617 22.0128 42.2389 23.8642 42.3534C24.4444 42.3893 25.0248 42.409 25.605 42.409C26.1393 42.409 26.6738 42.3967 27.2081 42.3736C27.5193 42.2893 27.8152 42.1892 28.0895 42.0965C28.475 41.9662 28.8183 41.8504 29.1018 41.8127C29.7848 41.7217 30.5596 41.8653 31.135 41.972C31.229 41.9894 31.3178 42.0059 31.3999 42.0202C31.8569 41.9673 32.3139 41.9108 32.7709 41.8529C32.8014 41.8851 32.8322 41.9187 32.8634 41.953C33.2534 42.3822 33.7329 42.3767 34.4875 42.3687C34.8162 42.3652 35.1971 42.3615 35.6455 42.3925C35.9344 42.4125 36.0829 42.5827 36.2041 42.7215C36.2398 42.7623 36.2733 42.8005 36.3071 42.8314C36.4232 42.937 36.5456 42.8228 36.6901 42.6879C36.8777 42.5129 37.1027 42.3027 37.3999 42.4926C38.3469 43.0977 38.7642 42.6872 39.0799 42.3766C39.1724 42.2855 39.2564 42.2032 39.3423 42.1575C39.6209 42.0093 40.0179 42.1562 40.3179 42.3577C40.5558 42.5175 41.0318 42.3591 41.3927 42.1575C41.5292 42.0813 41.7138 42.0794 41.9312 42.0776C42.1561 42.0757 42.4164 42.074 42.6949 41.9884C43.3985 41.7723 43.7725 41.6676 44.0731 41.5838C44.1588 41.5599 44.2386 41.5381 44.3184 41.5154C44.5704 41.4437 44.8831 41.3846 45.1998 41.325C45.5787 41.2536 45.9633 41.1812 46.2559 41.0845C47.0143 41.1868 47.7728 41.3134 48.5312 41.4397C48.9207 41.5053 49.2944 41.8746 49.5699 42.4834C49.8453 43.0928 50 43.8873 50 44.7107C50 45.5341 49.8453 46.3285 49.5699 46.9379C49.2944 47.5467 48.9207 47.9166 48.5312 47.9822C47.7464 48.1129 46.9615 48.2437 46.1767 48.3478C45.2207 48.4747 44.2646 48.5621 43.3086 48.5621C42.6399 48.5621 41.9711 48.5424 41.3023 48.5071C41.2335 48.5035 41.1646 48.4995 41.0957 48.4955C40.5339 48.6983 39.9731 48.8827 39.5781 48.9484C39.2518 49.0027 39.014 48.8945 38.8103 48.8019C38.6702 48.7382 38.5462 48.6819 38.4207 48.6908C38.3533 48.6957 38.2612 48.7082 38.1502 48.7232C37.6969 48.7845 36.9271 48.8887 36.2247 48.6908C35.9131 48.603 35.5511 48.43 35.2055 48.2648C34.7113 48.0286 34.2504 47.8084 34.0178 47.876C33.6092 47.9948 33.1407 47.8943 32.7267 47.8052C32.3318 47.7203 31.9864 47.6461 31.79 47.7832C31.5553 47.9472 31.3551 47.8804 31.0575 47.7814C30.8512 47.7128 30.5979 47.629 30.2536 47.5952C29.8562 47.5563 29.575 47.4414 29.336 47.3438C28.9996 47.2063 28.7465 47.103 28.3693 47.2931C27.9503 47.5043 27.5124 47.6388 27.1675 47.572C27.0104 47.5416 26.8307 47.549 26.6438 47.5568C26.3962 47.567 26.1359 47.5777 25.8982 47.5019C25.7023 47.4394 25.5404 47.2795 25.3971 47.1381C25.3524 47.0939 25.3095 47.0518 25.268 47.0148C25.112 47.0168 24.9559 47.0198 24.7999 47.0245C24.7747 47.0503 24.7481 47.0788 24.7204 47.1082C24.5813 47.2557 24.4103 47.4367 24.1985 47.5269C23.8634 47.6696 23.5694 47.5802 23.2592 47.4854C23.0177 47.4115 22.7664 47.3344 22.4783 47.3621C22.2819 47.3809 22.0582 47.4463 21.8365 47.511C21.5072 47.6071 21.182 47.7018 20.956 47.6416C20.8714 47.6191 20.7986 47.5187 20.7266 47.4188C20.7263 47.4182 20.726 47.4176 20.7256 47.417C20.7207 47.4102 20.7158 47.4036 20.7109 47.3969C20.1607 47.4734 19.6104 47.5577 19.0601 47.6465C19.0124 47.6723 18.9643 47.6978 18.9165 47.7228C18.6832 47.8452 18.4565 47.9641 18.3086 48.133C18.1484 48.316 17.7457 48.4224 17.3212 48.5346C17.0432 48.6081 16.7559 48.6839 16.5213 48.7854C16.3841 48.8448 16.254 48.7413 16.1201 48.6347C15.9953 48.5352 15.867 48.433 15.7269 48.4583C15.6566 48.471 15.5808 48.5138 15.4999 48.5596C15.4286 48.5999 15.3533 48.6427 15.2744 48.6689C15.2011 48.6931 15.0379 48.6368 14.8287 48.5651C14.6994 48.5208 14.5524 48.4708 14.3982 48.4296C13.9906 48.4941 13.5828 48.5559 13.1752 48.6133C13.0902 48.704 13.0164 48.8217 12.958 48.9728C12.916 49.0812 12.8804 49.2108 12.8437 49.3433C12.7938 49.5236 12.7422 49.7099 12.6711 49.8585C12.6155 49.9745 12.5499 50.0208 12.5059 49.9726C12.4854 49.9501 12.4697 49.9078 12.4554 49.8694C12.439 49.8256 12.4244 49.7865 12.4065 49.7877C12.3937 49.7885 12.3803 49.8196 12.3638 49.8572C12.3375 49.9173 12.3033 49.9949 12.2513 49.9976C12.0576 50.0079 11.8375 49.9831 11.6219 49.9586C11.3821 49.9313 11.1477 49.9049 10.961 49.928C10.7518 49.954 10.4537 49.8386 10.1551 49.7236C9.94681 49.6433 9.7382 49.5635 9.55925 49.5307C9.38387 49.4986 9.20127 49.5624 9.02443 49.6247C8.81216 49.6994 8.60799 49.7717 8.43449 49.6705C8.3994 49.6499 8.35583 49.5248 8.30116 49.3683C8.26242 49.2574 8.21783 49.1306 8.16708 49.0137C7.94622 49.0137 7.72532 49.0086 7.50446 48.9991C7.49668 49.016 7.48866 49.0333 7.48062 49.051C7.48049 49.0514 7.48037 49.0518 7.48024 49.0522C7.29884 49.4502 7.0506 49.9947 6.70185 49.6699C6.6132 49.5873 6.55739 49.4348 6.50711 49.2975C6.45773 49.1627 6.41359 49.0421 6.34899 49.0168C6.27562 48.988 6.18899 49.0708 6.09455 49.1608C5.96195 49.2872 5.81383 49.4284 5.66521 49.2969C5.65506 49.288 5.64414 49.2781 5.63278 49.2682C5.52505 49.1747 5.36557 49.0364 5.20687 48.758C4.73603 48.6837 4.26513 48.5966 3.79429 48.5016C3.00944 48.3433 2.22444 48.1627 1.43967 47.9822C1.05787 47.8934 0.691699 47.5142 0.421715 46.9074C0.151715 46.2996 0 45.5185 0 44.7107C2.25328e-05 43.9028 0.151735 43.1223 0.421715 42.5146C0.691701 41.9076 1.05785 41.5286 1.43967 41.4397C2.06226 41.2965 2.68505 41.1532 3.30772 41.021C3.34036 41.0042 3.37313 40.988 3.40576 40.9728C3.64849 40.8596 3.87371 40.6322 4.09908 40.4046C4.15085 40.3523 4.20271 40.2998 4.25472 40.2489Z" fill="black"/>
</svg>
