<svg width="59" height="55" viewBox="0 0 59 55" fill="none" xmlns="http://www.w3.org/2000/svg">
<path d="M42.0917 1.66426C43.5901 1.98253 46.0383 3.58167 47.2386 4.60936C47.2611 4.62762 47.2837 4.64596 47.3062 4.6643C47.5963 4.90325 47.8734 5.12471 48.1925 5.3907C48.9385 6.03427 50.0079 6.88601 51.6875 9.10679C52.2191 9.71379 52.7228 10.3456 53.1957 10.9994C56.7145 15.8334 58.5225 21.8826 58.3245 27.7861C58.3245 27.7861 58.3245 27.7861 58.3245 27.7861C58.2449 30.4988 57.7667 33.1894 56.9116 35.7445C56.8826 35.8485 56.8526 35.954 56.8216 36.0604C56.2428 38.1288 55.1426 40.5835 54.1838 41.9566C52.9809 43.7107 51.9854 44.754 51.1529 45.576C46.6702 50.5485 40.4509 53.7595 33.9499 54.6098C32.6218 54.7874 31.2866 54.8714 29.9475 54.8645C29.2897 54.8608 28.6319 54.8589 27.9741 54.8589C27.6319 54.8589 27.2897 54.8593 26.9475 54.8601C25.4308 54.8632 23.9136 54.7471 22.4139 54.5094C21.3185 54.3933 20.2761 54.23 19.3141 54.0278C17.9644 53.7447 16.7772 53.3854 15.8323 53.0011C13.5422 52.0894 11.2251 50.4743 9.69456 49.1021C9.44225 48.8797 9.20789 48.6648 8.99409 48.4639C7.73453 47.4255 6.56252 46.2745 5.49836 45.0257C5.44978 44.9243 5.40222 44.8214 5.3548 44.7164C4.77544 43.4036 3.76448 42.0484 2.57199 39.6531C2.06134 38.6104 1.5291 37.3649 1.08035 35.8424C0.79546 34.8622 0.809542 34.3141 0.819831 33.8777C0.823405 33.7486 0.827541 33.6278 0.826431 33.5069C0.822529 33.091 0.651423 32.6973 0.461419 32.2134C0.216875 31.5903 -0.0625758 30.8121 0.012529 29.7574C0.0666896 29.0022 0.117566 28.3617 0.154288 27.7861C0.154288 27.7861 0.154288 27.7861 0.154288 27.7861C0.293613 25.8077 0.208004 24.7292 0.134092 23.8417C0.109093 23.5088 0.0930979 23.2008 0.111483 22.8938C0.16543 21.8962 0.619997 20.532 1.1002 19.5739C1.46797 18.8073 1.93569 17.1974 2.35872 15.9719C2.51505 15.5065 2.81073 14.9185 3.19472 14.2435C3.59123 13.5459 4.08142 12.7588 4.60323 11.9082C5.93795 9.76537 6.85798 8.75268 7.57699 7.93917C7.78546 7.70902 7.98375 7.49803 8.18458 7.28941C8.81818 6.62961 9.66137 5.86275 10.5687 5.14813C11.6523 4.2887 12.8275 3.51171 13.7411 2.94058C16.2372 1.7031 18.9184 0.864725 21.6444 0.442769C23.0495 0.222793 24.4372 0.379985 25.4335 0.814661C26.4278 1.24997 26.9491 1.89828 26.9475 2.55466C26.946 3.21512 26.4408 3.84091 25.6303 4.37277C24.8105 4.9047 23.7545 5.31114 22.6359 5.58199C20.3827 6.12257 18.2341 7.01065 16.2696 8.17865C13.8739 9.60169 11.7501 11.4372 9.97336 13.5544C8.72981 15.0355 7.66784 16.6693 6.82397 18.4109C6.73713 18.5901 6.65234 18.7705 6.56996 18.9523C6.06506 20.5092 5.76523 22.0948 5.58693 23.2044C5.43749 24.1203 5.26144 24.7761 5.12242 25.3498C5.02783 25.7446 4.95398 26.0946 4.93945 26.4577C4.93172 26.6537 4.92861 26.916 4.93277 27.2363C4.93499 27.4048 4.93929 27.5888 4.94616 27.7861C4.98414 29.1147 5.18977 30.9985 5.45815 32.7395C5.58792 33.6262 5.75037 34.6715 5.983 35.6616C6.30837 37.079 6.79047 38.3813 7.17988 38.9527C7.85481 39.9587 8.56556 41.1441 9.29091 42.1426C9.97738 43.0961 10.6648 43.8763 11.1623 44.2013C11.7572 44.5882 12.1577 45.0208 12.8001 45.6352C13.2469 46.0584 13.8121 46.5695 14.6659 47.1461C15.6536 47.808 16.3612 48.274 16.9776 48.658C17.8448 49.1899 18.5379 49.5664 19.6666 49.7848C20.921 50.025 22.2165 50.2127 23.2252 50.4284C23.686 50.5283 24.2203 50.5939 24.779 50.6398C25.4956 50.6993 26.2476 50.725 26.9475 50.7793C26.971 50.7811 26.9945 50.7828 27.0179 50.7847C27.6569 50.8346 28.185 50.9625 28.6523 51.0757C28.798 51.111 28.938 51.1447 29.0734 51.1743C29.3648 51.1734 29.6561 51.1722 29.9475 51.1706C30.1525 51.1695 30.3568 51.1655 30.5603 51.1586C30.6369 51.1361 30.7171 51.1108 30.8004 51.0843C31.216 50.9511 31.7287 50.7775 32.349 50.6408C33.3376 50.422 34.2057 50.3457 35.1332 50.2116C35.8505 50.1066 36.6007 49.9646 37.4172 49.6632C37.9716 49.4585 38.5837 49.1676 39.1712 48.8529C40.0458 48.3874 40.8644 47.8651 41.4701 47.5653C41.6972 47.4535 41.9244 47.4095 42.1509 47.3622C42.152 47.3621 42.153 47.362 42.1541 47.3619C42.1695 47.3587 42.1848 47.3554 42.2001 47.3521C43.5715 46.4193 44.8333 45.3363 45.9578 44.1352C46.0451 44.0208 46.1325 43.9049 46.218 43.7894C46.6365 43.2257 47.0095 42.6584 47.1846 42.2386C47.3767 41.7857 48.0469 40.8167 48.6306 39.7315C49.0163 39.0229 49.3677 38.2693 49.5958 37.6318C49.7298 37.2589 49.9615 36.9599 50.1948 36.6402C50.4123 36.3418 50.6291 36.0295 50.7543 35.6412C50.817 35.4465 50.8595 35.2291 50.9008 34.9963C50.9372 34.7913 50.9726 34.5744 51.0202 34.3511C51.0638 34.145 51.2444 33.7097 51.4454 33.137C51.5694 32.7848 51.702 32.3744 51.8168 31.9431C51.9859 30.7695 52.0616 29.5894 52.0482 28.4103C51.9832 28.1654 51.8922 27.9531 51.7732 27.7861C51.7732 27.7861 51.7732 27.7861 51.7732 27.7861C51.7719 27.7843 51.7706 27.7824 51.7692 27.7806C51.6825 27.6602 51.5779 27.5594 51.4704 27.4575C51.324 27.3189 51.1719 27.1784 51.0459 26.987C50.9476 26.8373 50.9018 26.6613 50.9331 26.5372C50.9477 26.4798 50.9788 26.4343 51.0068 26.3929C51.0389 26.3454 51.0673 26.3029 51.0629 26.2536C51.0597 26.2182 51.0322 26.183 50.9987 26.14C50.9452 26.0713 50.876 25.9829 50.8608 25.8415C50.8045 25.3128 50.7477 24.7149 50.6641 24.1265C50.573 23.4766 50.4483 22.8416 50.2982 22.352C50.1317 21.8024 49.9815 20.9954 49.7701 20.191C49.6244 19.6303 49.4508 19.0716 49.2599 18.6107C49.0728 18.1574 48.7924 17.7286 48.5069 17.325C48.1647 16.8404 47.8167 16.3945 47.6159 15.9505C47.5753 15.8607 47.5902 15.7043 47.6051 15.5068C47.6157 15.3668 47.6259 15.2054 47.6171 15.0336C47.2491 14.5247 46.8623 14.029 46.457 13.5479C46.4323 13.54 46.4069 13.5318 46.3813 13.5238C46.3808 13.5238 46.3803 13.5237 46.3798 13.5237C45.7967 13.3403 45.0303 13.1387 44.509 12.2901C44.3748 12.0734 44.3411 11.8788 44.3088 11.7025C44.2769 11.5295 44.2463 11.3739 44.12 11.2387C43.9764 11.0853 43.7441 10.9774 43.4907 10.8667C43.1342 10.7103 42.7376 10.5503 42.459 10.2223C42.4399 10.1999 42.4194 10.1757 42.3979 10.1507C42.1931 9.91379 41.8842 9.56975 41.6166 9.13945C40.5036 8.37104 39.3207 7.69404 38.0809 7.12391C36.0138 6.17261 33.7867 5.52149 31.4841 5.22319C30.9537 5.15416 30.4427 5.0537 29.9475 4.92276C29.344 4.77526 28.7895 4.56921 28.323 4.31202C27.4424 3.82582 26.9475 3.20097 26.9475 2.55466C26.9476 1.90841 27.4424 1.28395 28.323 0.797793C28.7895 0.540585 29.344 0.334528 29.9475 0.187042C30.5428 0.0560782 31.1769 -0.00964451 31.834 0.000914335C34.0977 0.0373659 36.3726 0.350836 38.5884 0.953192C38.707 0.977272 38.8259 1.00269 38.9438 1.02948C39.8187 1.22839 40.6622 1.36288 41.5085 1.5366C41.7028 1.57658 41.8974 1.61873 42.0917 1.66426Z" fill="black"/>
</svg>
