<svg width="121" height="57" viewBox="0 0 121 57" fill="none" xmlns="http://www.w3.org/2000/svg">
<path d="M2.54041 29C2.54041 15.1929 13.7333 4 27.5404 4H92.5404C106.348 4 117.54 15.1929 117.54 29V29C117.54 42.8071 106.348 54 92.5404 54H27.5404C13.7333 54 2.54041 42.8071 2.54041 29V29Z" fill="#3C8657"/>
<path d="M51.9698 0.199126C54.2403 -0.110607 58.6184 0.0158854 61.0267 0.0853548C61.0708 0.0864942 61.115 0.0876336 61.1592 0.088773C61.7308 0.105229 62.2714 0.109503 62.9048 0.114164C64.4153 0.125278 66.4561 0.14037 70.7154 0.337801C71.9547 0.330526 73.1942 0.32657 74.4334 0.32657C80.4691 0.326572 86.5048 0.378949 92.5404 0.464748C100.944 0.511105 109.147 4.61487 114.234 11.1265C114.356 11.272 114.479 11.4212 114.601 11.5733C117.028 14.4756 119.06 18.8109 119.651 21.6974C120.346 24.8049 120.364 27.1301 120.272 29C120.254 29.3305 120.231 29.6467 120.203 29.9513C119.704 41.8201 110.805 52.4452 99.5351 55.206C97.2496 55.7956 94.8946 56.0858 92.5404 56.0784C91.3824 56.0747 90.2245 56.0728 89.0666 56.0728C85.9986 56.0728 82.9299 56.0826 79.8619 56.1011C78.0752 56.1685 76.3765 56.2486 74.8012 56.3228C72.5877 56.4271 70.6171 56.5197 68.9893 56.5499C65.0675 56.6227 60.6187 56.5078 57.315 56.4224C56.7752 56.4085 56.2653 56.3953 55.7939 56.3839C53.1701 56.4261 50.5458 56.4714 47.922 56.5176C47.7468 56.4919 47.5703 56.4651 47.3908 56.4376C45.1516 56.0943 42.3988 56.0987 38.0657 56.105C36.1787 56.1078 33.9917 56.1108 31.417 56.086C29.758 56.07 28.9057 55.9339 28.2094 55.8228C28.0045 55.7901 27.8124 55.7596 27.618 55.7349C27.5922 55.7316 27.5663 55.7286 27.5404 55.7259C26.8495 55.6568 26.1297 55.7223 25.2649 55.7545C24.1062 55.7949 22.6733 55.7833 20.9147 55.1867C15.392 53.1637 13.2708 51.7288 11.4929 50.8382C10.9859 50.5552 10.5323 50.282 10.0954 49.9661C8.66442 48.9531 6.99167 47.0622 6.00108 45.4708C5.18066 44.236 3.49304 41.8104 2.47761 39.7738C2.08379 39.0132 1.65929 37.9284 1.27828 36.617C0.882696 35.2597 0.537078 33.6569 0.285342 31.9226C0.127754 30.8395 0.0513914 29.8717 0.0181413 29C0.0181413 29 0.0181413 29 0.0181413 29C-0.0687051 26.352 0.171087 24.6487 0.409152 23.2296C0.504249 22.6891 0.606945 22.1942 0.723522 21.6954C1.08607 20.1269 1.7247 18.2156 2.60578 16.3822C3.64733 14.1807 5.04251 12.117 6.22327 10.6415C9.48001 6.98146 13.7031 4.22204 18.3205 2.71509C20.693 1.93011 23.1356 1.79062 24.8779 2.11646C26.6301 2.44158 27.5418 3.11718 27.5404 3.76853C27.5366 4.43275 26.6522 5.03752 25.2252 5.66304C23.7932 6.28818 21.9395 6.93091 20.0529 7.65407C16.2412 9.09729 12.8682 11.5924 10.3623 14.7451C7.29528 18.5811 5.55289 23.3763 5.40273 28.2424C5.3943 28.4938 5.38996 28.7463 5.38979 29C5.38979 29 5.38979 29 5.38979 29C5.385 32.1599 6.04389 35.3049 7.33008 38.187C7.47264 38.5071 7.6229 38.8246 7.78064 39.1382C9.22451 41.6261 11.188 43.7129 12.6836 45.01C13.9155 46.0883 14.8372 46.8473 15.6589 47.4699C16.226 47.8956 16.749 48.249 17.3145 48.5382C17.6182 48.6931 18.0395 48.8942 18.5562 49.1122C20.56 49.997 24.1029 50.9406 27.5404 51.0273C27.7246 51.0335 27.9083 51.0402 28.0911 51.0473C29.8804 51.1176 31.9591 51.256 33.9435 51.3882C36.7811 51.5771 39.4272 51.7533 40.763 51.6992C43.1088 51.6041 45.799 51.6846 48.1761 51.7558C50.4435 51.8238 52.4265 51.8831 53.5543 51.7734C54.9019 51.6423 56.0511 51.6957 57.7597 51.7749C58.9447 51.8298 60.3991 51.8968 62.3757 51.9238C64.6577 51.955 66.2722 52.0469 67.6445 52.125C69.5758 52.235 71.0289 52.3176 73.1947 52.1655C75.6005 51.9965 78.1149 51.889 80.0952 51.9424C80.9971 51.9667 82.0289 51.9608 83.1024 51.9546C84.5237 51.9464 86.0185 51.9379 87.3834 51.9985C88.5081 52.0485 89.4377 52.1764 90.2603 52.2895C90.5169 52.3248 90.7632 52.3585 91.0017 52.3882C91.5146 52.3872 92.0275 52.3861 92.5404 52.3845C92.9012 52.3833 93.2599 52.3738 93.6164 52.3561C93.7498 52.3294 93.8926 52.299 94.0395 52.2661C94.777 52.1003 95.6638 51.8676 96.7505 51.594C98.4643 51.1564 99.9569 50.7685 101.499 50.2034C102.695 49.7597 103.919 49.2013 105.189 48.3454C106.054 47.7622 106.973 47.0045 107.813 46.1862C109.067 44.9748 110.126 43.6286 110.872 42.7049C111.153 42.3597 111.438 42.0926 111.717 41.8199C111.719 41.8188 111.72 41.8177 111.722 41.8166C111.74 41.7981 111.759 41.7794 111.778 41.7608C113.344 39.2976 114.422 36.5426 114.941 33.6988C114.972 33.4492 114.999 33.1984 115.022 32.9481C115.139 31.7272 115.133 30.5368 115.021 29.7691C114.994 29.5757 114.969 29.3149 114.941 29C114.941 29 114.941 29 114.941 29C114.852 27.9646 114.695 26.3631 114.306 24.7486C113.982 23.3698 113.494 21.9897 112.98 20.9211C112.682 20.2976 112.489 19.6682 112.257 19.023C112.042 18.4231 111.793 17.8084 111.395 17.2119C111.196 16.9131 110.955 16.609 110.688 16.2925C110.453 16.0141 110.199 15.7267 109.936 15.4244C109.692 15.1441 109.213 14.4681 108.516 13.6597C108.085 13.1603 107.571 12.6113 106.993 12.0738C105.374 10.7579 103.578 9.67285 101.676 8.85968C101.253 8.74705 100.872 8.69147 100.556 8.6965C100.329 8.70013 100.126 8.73418 99.9191 8.77158C99.6387 8.82307 99.3521 8.88036 98.9873 8.88807C98.7017 8.89375 98.3916 8.84075 98.197 8.74681C98.1065 8.70296 98.0419 8.65041 97.9827 8.60295C97.9151 8.54866 97.8535 8.50035 97.7698 8.48001C97.7093 8.46537 97.6403 8.47374 97.5558 8.48414C97.4207 8.50084 97.2466 8.52286 97.0008 8.47186C96.089 8.28183 95.0375 8.10566 93.9997 8.01652C93.5018 7.97318 93.0165 7.94836 92.5404 7.94231C91.7926 7.93423 91.089 7.93183 90.4751 7.94244C89.2741 7.9632 87.5625 7.87089 85.8482 7.77886C84.6522 7.71466 83.4544 7.65077 82.4269 7.62456C81.42 7.59887 80.3715 7.64993 79.3561 7.69976C78.1374 7.75956 76.9651 7.81733 75.9688 7.73638C75.7674 7.71994 75.5172 7.61987 75.2033 7.49467C74.9809 7.40594 74.7249 7.30449 74.4334 7.21098C73.1653 7.21098 71.897 7.20687 70.6289 7.19926C70.5842 7.21284 70.5382 7.22665 70.492 7.24076C70.4913 7.24109 70.4905 7.24141 70.4898 7.24174C69.4482 7.56017 68.023 7.99573 66.0205 7.73589C65.5115 7.66983 65.1911 7.54783 64.9024 7.43803C64.6189 7.3302 64.3655 7.23371 63.9945 7.21342C63.5732 7.19044 63.0758 7.25665 62.5336 7.32865C61.7722 7.42975 60.9218 7.54272 60.0684 7.43754C60.0102 7.43036 59.9475 7.42248 59.8822 7.41459C59.2637 7.33977 58.348 7.22911 57.4368 7.00638C54.7333 6.94693 52.0296 6.87731 49.3261 6.8013C44.8198 6.67461 40.3125 6.53015 35.8066 6.38577C33.6144 6.3147 31.5119 6.0114 29.9618 5.52589C28.4115 5.03969 27.5404 4.41483 27.5404 3.76853C27.5405 3.12228 28.4116 2.49782 29.9618 2.01166C31.512 1.52611 33.6143 1.22285 35.8066 1.15178C39.3813 1.03724 42.9572 0.922527 46.5324 0.816814C46.7198 0.803392 46.908 0.790409 47.0953 0.778239C48.489 0.687675 49.7822 0.505779 51.0762 0.323641C51.3734 0.281804 51.6712 0.239876 51.9698 0.199126Z" fill="black"/>
</svg>
