<svg width="255" height="57" viewBox="0 0 255 57" fill="none" xmlns="http://www.w3.org/2000/svg">
<path d="M75.3454 0.199126C79.7355 -0.110607 88.2006 0.0158854 92.857 0.0853548C92.9425 0.0864942 93.0278 0.0876336 93.1133 0.088773C94.2184 0.105229 95.2637 0.109503 96.4885 0.114164C99.4091 0.125278 103.355 0.14037 111.59 0.337801C113.987 0.330526 116.383 0.32657 118.779 0.32657C144.656 0.326573 170.533 0.5841 196.41 0.892499C196.737 0.890908 197.07 0.88927 197.406 0.887616C203.896 0.855653 211.944 0.816104 217.001 0.929121C221.098 1.02069 224.357 1.10805 227.111 1.18915C228.852 1.23612 230.404 1.43641 231.817 1.72009C244.714 3.87034 254.759 16.1244 254.411 29C254.411 29 254.411 29 254.411 29C254.428 38.7488 248.733 48.1666 240.219 52.7439C236.222 54.9409 231.661 56.0929 227.111 56.0784C224.872 56.0747 222.633 56.0728 220.394 56.0728C214.462 56.0728 208.529 56.0826 202.597 56.1011C199.142 56.1685 195.857 56.2486 192.812 56.3228C188.532 56.4271 184.722 56.5197 181.574 56.5499C173.991 56.6227 165.39 56.5078 159.002 56.4224C157.958 56.4085 156.972 56.3953 156.061 56.3839C150.988 56.4261 145.913 56.4714 140.84 56.5176C140.501 56.4919 140.16 56.4651 139.813 56.4376C135.484 56.0943 130.161 56.0987 121.783 56.105C118.134 56.1078 113.906 56.1108 108.928 56.086C105.72 56.07 104.072 55.9339 102.725 55.8228C102.329 55.7901 101.958 55.7596 101.582 55.7349C100.293 55.6504 98.9348 55.7417 97.3301 55.8497C95.2482 55.9897 92.7504 56.1578 89.4509 56.0059C78.9373 55.5218 74.3045 55.8503 70.8001 56.0987C69.7722 56.1716 68.8404 56.2374 67.8865 56.274C64.7932 56.3926 60.3863 56.2751 57.0555 56.1138C54.4145 55.986 49.1307 56.1127 45.1235 56.274C43.6084 56.335 41.5593 56.3365 39.1458 56.338C36.6484 56.3395 33.7587 56.3408 30.6674 56.4092C29.7681 56.4291 28.9174 56.4479 28.1107 56.4655C21.267 56.4934 17.4515 54.6704 14.574 53.21C13.6438 52.7102 12.8046 52.194 11.9924 51.6377C9.42164 49.8947 6.57102 47.1778 4.44808 43.863C1.85538 39.9219 0.464979 35.2046 0.0949268 31.5766C0.0244782 30.7191 -0.00660491 29.8624 0.00109076 29C0.00109076 29 0.00109076 29 0.00109076 29C0.0147681 20.3726 4.34196 11.9368 11.2054 6.86841C15.0628 3.94561 19.6563 2.58519 22.9828 2.47322C26.3384 2.35154 28.1173 3.13751 28.1107 3.76853C28.1069 4.44787 26.382 4.96793 23.6556 5.97268C20.9287 6.97247 17.4557 8.58476 14.3853 11.0257C8.90075 15.2931 5.63063 22.13 5.75772 29C5.75772 29 5.75772 29 5.75772 29C5.76853 29.9522 5.83782 30.8929 5.96651 31.8311C7.14271 41.2947 15.0166 49.3624 24.3517 50.8332C25.5903 51.0448 26.848 51.151 28.1107 51.1521C34.1162 51.1568 40.1217 51.1715 46.1272 51.1943C46.8915 51.1972 47.6561 51.2004 48.4204 51.2036C54.6578 51.0414 60.8831 50.8939 65.2693 50.8413C68.8908 50.7979 71.531 50.8844 73.7921 50.9585C75.3482 51.0094 76.725 51.0545 78.1182 51.0473C78.8663 51.0435 79.8883 51.0335 81.1208 51.0215C86.153 50.9724 94.6997 50.8891 102.497 51.0473C105.956 51.1176 109.976 51.256 113.813 51.3882C119.299 51.5771 124.415 51.7533 126.998 51.6992C131.534 51.6041 136.735 51.6846 141.331 51.7558C145.716 51.8238 149.55 51.8831 151.73 51.7734C154.336 51.6423 156.558 51.6957 159.862 51.7749C162.153 51.8298 164.965 51.8968 168.787 51.9238C173.199 51.955 176.321 52.0469 178.974 52.125C182.708 52.235 185.518 52.3176 189.705 52.1655C194.357 51.9965 199.219 51.889 203.048 51.9424C204.792 51.9667 206.787 51.9608 208.862 51.9546C211.61 51.9464 214.501 51.9379 217.139 51.9985C219.314 52.0485 221.112 52.1764 222.702 52.2895C223.198 52.3248 223.675 52.3585 224.136 52.3882C225.127 52.3872 226.119 52.3861 227.111 52.3845C227.808 52.3833 228.498 52.3517 229.189 52.2894C229.447 52.246 229.72 52.1947 230.002 52.1361C231.416 51.8399 233.12 51.3623 235.119 50.545C238.273 49.234 240.845 47.6227 243.18 45.472C244.981 43.7899 246.638 41.7445 247.916 39.0747C248.787 37.2579 249.475 35.0462 249.789 32.8039C249.973 31.5199 250.043 30.2291 250.02 29C250.02 29 250.02 29 250.02 29C249.988 27.0433 249.712 25.2704 249.426 23.8911C249.252 23.051 249.122 22.3178 248.961 21.5924C248.96 21.5891 248.96 21.5859 248.959 21.5827C248.948 21.5335 248.937 21.4843 248.926 21.4352C247.034 16.12 243.099 11.5886 238.162 8.9573C237.728 8.74105 237.283 8.5363 236.837 8.34807C234.659 7.41609 232.405 6.93452 230.928 6.82847C230.145 6.76744 228.787 6.634 227.111 6.68499C225.156 6.73719 222.812 6.78183 220.406 6.82767C217.32 6.88645 214.13 6.94715 211.525 7.02836C210.003 7.07582 208.558 6.99307 207.072 6.90775C205.686 6.82814 204.262 6.74644 202.706 6.76663C201.926 6.77677 201.084 6.81104 200.186 6.84769C199.395 6.87995 198.559 6.91415 197.683 6.93509C196.87 6.95449 195.058 6.90942 192.735 6.85208C191.299 6.81665 189.667 6.77662 187.955 6.74368C183.43 6.79525 178.904 6.84469 174.378 6.89066C173.434 6.96321 172.615 7.05737 171.966 7.17826C171.501 7.26499 171.105 7.36867 170.698 7.47465C170.144 7.61888 169.571 7.76793 168.782 7.88677C168.164 7.97964 167.437 8.01664 166.948 7.97808C166.72 7.9601 166.545 7.92621 166.387 7.89556C166.205 7.86045 166.043 7.82923 165.845 7.83013C165.702 7.83084 165.553 7.8557 165.37 7.88579C165.078 7.93385 164.699 7.99589 164.121 7.9981C161.971 8.00631 159.527 7.98645 157.133 7.96685C154.471 7.94506 151.869 7.92391 149.796 7.94244C147.474 7.9632 144.165 7.87089 140.85 7.77886C138.537 7.71466 136.221 7.65077 134.235 7.62456C132.288 7.59887 130.261 7.64993 128.297 7.69976C125.941 7.75956 123.674 7.81733 121.748 7.73638C121.359 7.71994 120.875 7.61987 120.268 7.49467C119.838 7.40594 119.343 7.30449 118.779 7.21098C116.327 7.21098 113.875 7.20687 111.423 7.19926C111.337 7.21284 111.248 7.22665 111.158 7.24076C111.157 7.24109 111.156 7.24141 111.154 7.24174C109.14 7.56017 106.385 7.99573 102.513 7.73589C101.529 7.66983 100.909 7.54783 100.351 7.43803C99.8026 7.3302 99.3126 7.23371 98.5954 7.21342C97.7808 7.19044 96.8191 7.25665 95.7707 7.32865C94.2986 7.42975 92.6543 7.54272 91.0042 7.43754C90.8916 7.43036 90.7704 7.42248 90.6443 7.41459C89.4483 7.33977 87.6777 7.22911 85.9159 7.00638C80.6888 6.94693 75.461 6.87731 70.2338 6.8013C61.5207 6.67461 52.8058 6.53015 44.0935 6.38577C39.8549 6.3147 35.7898 6.0114 32.7925 5.52589C29.795 5.03969 28.1107 4.41483 28.1107 3.76853C28.111 3.12228 29.7952 2.49782 32.7925 2.01166C35.7898 1.52611 39.8547 1.22285 44.0935 1.15178C51.0054 1.03724 57.9194 0.922527 64.8321 0.816814C65.1945 0.803392 65.5583 0.790409 65.9205 0.778239C68.6153 0.687675 71.1155 0.505779 73.6176 0.323641C74.1923 0.281804 74.7681 0.239876 75.3454 0.199126Z" fill="black"/>
</svg>
