<svg width="286" height="57" viewBox="0 0 286 57" fill="none" xmlns="http://www.w3.org/2000/svg">
<path d="M80.5802 0.199126C85.4606 -0.110607 94.8712 0.0158854 100.048 0.0853548C100.143 0.0864942 100.238 0.0876336 100.333 0.088773C101.561 0.105229 102.723 0.109503 104.085 0.114164C107.332 0.125278 111.718 0.14037 120.873 0.337801C123.537 0.330526 126.202 0.32657 128.865 0.32657C157.633 0.326573 186.4 0.5841 215.168 0.892499C215.531 0.890908 215.9 0.88927 216.274 0.887616C223.489 0.855653 232.436 0.816104 238.058 0.929121C245.205 1.07281 250.059 1.20614 254.046 1.32122C255.387 1.33578 256.728 1.35026 258.07 1.36462C272.802 1.1649 285.792 14.4878 285.336 29C285.336 29 285.336 29 285.336 29C285.355 38.2114 280.288 47.1789 272.493 51.967C268.198 54.6593 263.128 56.0967 258.07 56.0784C255.581 56.0747 253.092 56.0728 250.603 56.0728C244.008 56.0728 237.412 56.0826 230.817 56.1011C226.977 56.1685 223.326 56.2486 219.94 56.3228C215.182 56.4271 210.946 56.5197 207.447 56.5499C199.017 56.6227 189.454 56.5078 182.353 56.4224C181.193 56.4085 180.097 56.3953 179.084 56.3839C173.444 56.4261 167.803 56.4714 162.163 56.5176C161.787 56.4919 161.407 56.4651 161.021 56.4376C156.208 56.0943 150.291 56.0987 140.977 56.105C136.921 56.1078 132.22 56.1108 126.686 56.086C123.12 56.07 121.288 55.9339 119.791 55.8228C119.351 55.7901 118.938 55.7596 118.52 55.7349C117.087 55.6504 115.577 55.7417 113.793 55.8497C111.479 55.9897 108.702 56.1578 105.034 56.0059C93.346 55.5218 88.1957 55.8503 84.3 56.0987C83.1572 56.1716 82.1213 56.2374 81.0609 56.274C77.6221 56.3926 72.723 56.2751 69.0202 56.1138C66.0842 55.986 60.2102 56.1127 55.7554 56.274C54.0711 56.335 51.7931 56.3365 49.1101 56.338C46.3336 56.3395 43.1213 56.3408 39.6847 56.4092C34.6515 56.5094 30.9851 56.5797 28.0696 56.6341C25.7327 56.6694 23.8286 56.433 22.1317 56.0953C20.9812 55.8631 19.922 55.5765 18.8819 55.232C15.5948 54.1647 11.7327 52.053 8.57999 49.02C4.75195 45.4356 2.14744 40.6045 1.00706 36.708C0.312916 34.1947 -0.0217769 31.5948 0.00110722 29C0.00110722 29 0.00110722 29 0.00110722 29C0.0197697 21.0777 3.64885 13.2788 9.59957 8.15779C13.6382 4.59675 18.6933 2.83989 22.3769 2.58809C26.0923 2.32294 28.0791 3.14392 28.0696 3.76853C28.0672 4.45262 26.1416 4.9459 23.1245 6.07232C20.1068 7.19154 16.2861 9.11935 13.0722 12.0738C8.32081 16.3534 5.57018 22.6661 5.67545 29C5.67545 29 5.67545 29 5.67545 29C5.70017 31.3725 6.09627 33.722 6.8509 35.952C9.76114 44.8803 18.7398 51.305 28.0696 51.153C29.4162 51.1513 30.7629 51.1504 32.1095 51.1504C40.3633 51.1504 48.6174 51.1661 56.8712 51.1943C57.721 51.1972 58.5708 51.2004 59.4206 51.2036C66.3546 51.0414 73.2753 50.8939 78.1513 50.8413C82.1774 50.7979 85.1124 50.8844 87.6262 50.9585C89.356 51.0094 90.8867 51.0545 92.4354 51.0473C93.2671 51.0435 94.4033 51.0335 95.7734 51.0215C101.368 50.9724 110.869 50.8891 119.537 51.0473C123.383 51.1176 127.851 51.256 132.117 51.3882C138.216 51.5771 143.904 51.7533 146.775 51.6992C151.817 51.6041 157.6 51.6846 162.709 51.7558C167.583 51.8238 171.845 51.8831 174.27 51.7734C177.166 51.6423 179.637 51.6957 183.309 51.7749C185.856 51.8298 188.982 51.8968 193.231 51.9238C198.136 51.955 201.607 52.0469 204.556 52.125C208.708 52.235 211.831 52.3176 216.486 52.1655C221.658 51.9965 227.062 51.889 231.319 51.9424C233.258 51.9667 235.475 51.9608 237.783 51.9546C240.838 51.9464 244.051 51.9379 246.985 51.9985C249.402 52.0485 251.4 52.1764 253.169 52.2895C253.72 52.3248 254.25 52.3585 254.762 52.3882C255.865 52.3872 256.967 52.3861 258.07 52.3845C258.844 52.3833 259.613 52.3445 260.378 52.268C260.666 52.2191 260.969 52.161 261.281 52.0943C262.849 51.7563 264.74 51.199 266.927 50.2097C270.377 48.6232 273.125 46.6327 275.5 44.0243C277.33 41.9856 278.93 39.5249 279.969 36.4034C280.679 34.2768 281.096 31.7342 281.06 29.2111C281.059 29.1408 281.058 29.0704 281.056 29C281.007 25.3099 279.932 21.8344 278.922 19.5513C278.542 18.6746 278.223 17.9106 277.871 17.1657C277.87 17.1623 277.869 17.159 277.867 17.1556C277.843 17.1051 277.819 17.0547 277.794 17.0042C274.492 11.6629 268.934 7.80429 262.83 6.61257C262.3 6.52152 261.758 6.44769 261.224 6.39426C260.14 6.28499 259.073 6.25832 258.07 6.30111C256.508 6.36153 255.101 6.42707 254.03 6.50637C252.053 6.65279 247.081 6.73791 241.843 6.82767C238.413 6.88645 234.866 6.94715 231.97 7.02836C230.278 7.07582 228.672 6.99307 227.02 6.90775C225.479 6.82814 223.896 6.74644 222.166 6.76663C221.299 6.77677 220.364 6.81104 219.365 6.84769C218.485 6.87995 217.556 6.91415 216.582 6.93509C215.678 6.95449 213.664 6.90942 211.081 6.85208C209.485 6.81665 207.671 6.77662 205.768 6.74368C200.737 6.79525 195.705 6.84469 190.674 6.89066C189.625 6.96321 188.714 7.05737 187.993 7.17826C187.476 7.26499 187.035 7.36867 186.583 7.47465C185.967 7.61888 185.33 7.76793 184.453 7.88677C183.766 7.97964 182.957 8.01664 182.414 7.97808C182.161 7.9601 181.967 7.92621 181.79 7.89556C181.588 7.86045 181.408 7.82923 181.188 7.83013C181.029 7.83084 180.864 7.8557 180.66 7.88579C180.336 7.93385 179.914 7.99589 179.271 7.9981C176.881 8.00631 174.165 7.98645 171.503 7.96685C168.544 7.94506 165.651 7.92391 163.347 7.94244C160.765 7.9632 157.086 7.87089 153.401 7.77886C150.83 7.71466 148.256 7.65077 146.047 7.62456C143.883 7.59887 141.629 7.64993 139.447 7.69976C136.827 7.75956 134.307 7.81733 132.166 7.73638C131.733 7.71994 131.195 7.61987 130.52 7.49467C130.042 7.40594 129.492 7.30449 128.865 7.21098C126.14 7.21098 123.413 7.20687 120.688 7.19926C120.592 7.21284 120.493 7.22665 120.393 7.24076C120.392 7.24109 120.39 7.24141 120.389 7.24174C118.15 7.56017 115.086 7.99573 110.782 7.73589C109.688 7.66983 108.999 7.54783 108.378 7.43803C107.769 7.3302 107.224 7.23371 106.427 7.21342C105.521 7.19044 104.452 7.25665 103.287 7.32865C101.65 7.42975 99.8223 7.54272 97.988 7.43754C97.8627 7.43036 97.728 7.42248 97.5878 7.41459C96.2583 7.33977 94.2899 7.22911 92.3313 7.00638C86.5203 6.94693 80.7086 6.87731 74.8976 6.8013C65.2113 6.67461 55.5229 6.53015 45.8375 6.38577C41.1255 6.3147 36.6063 6.0114 33.2743 5.52589C29.942 5.03969 28.0696 4.41483 28.0696 3.76853C28.0699 3.12228 29.9423 2.49782 33.2743 2.01166C36.6064 1.52611 41.1253 1.22285 45.8375 1.15178C53.5214 1.03724 61.2078 0.922527 68.8926 0.816814C69.2954 0.803392 69.6998 0.790409 70.1025 0.778239C73.0983 0.687675 75.8778 0.505779 78.6593 0.323641C79.2982 0.281804 79.9383 0.239876 80.5802 0.199126Z" fill="black"/>
</svg>
