<svg width="27" height="27" viewBox="0 0 27 27" fill="none" xmlns="http://www.w3.org/2000/svg">
<path d="M9.93988 0.199126C10.5726 -0.110607 11.7926 0.0158854 12.4637 0.0853548C12.476 0.0864942 12.4883 0.0876336 12.5006 0.088773C12.6599 0.105229 12.8105 0.109503 12.9871 0.114164C13.408 0.125278 13.9767 0.14037 15.1636 0.337801C15.5089 0.330526 15.8543 0.32657 16.1996 0.32657C18.5105 0.326572 20.8214 0.425449 23.1323 0.574037L26.1852 0.268754L26.5583 4C26.4671 5.41856 26.3571 6.83712 26.2398 8.25568C26.2414 8.30279 26.2431 8.3507 26.2447 8.39911C26.2767 9.33451 26.3162 10.4944 26.2032 11.2232C26.0595 12.1498 25.9262 12.7791 25.8111 13.296C25.563 16.2582 25.3412 19.2205 25.2496 22.1827C25.2308 22.7884 25.2176 23.3942 25.2107 24L25.3959 25.852L23.1323 26.0784C22.8096 26.0747 22.487 26.0728 22.1643 26.0728C21.3094 26.0728 20.4542 26.0826 19.5993 26.1011C19.1014 26.1685 18.6281 26.2486 18.1891 26.3228C17.5723 26.4271 17.0231 26.5197 16.5695 26.5499C15.4767 26.6227 14.237 26.5078 13.3163 26.4224C13.1659 26.4085 13.0238 26.3953 12.8925 26.3839C12.1613 26.4261 11.43 26.4714 10.6989 26.5176C10.65 26.4919 10.6008 26.4651 10.5508 26.4376C9.92685 26.0943 9.15974 26.0987 7.95227 26.105C7.42645 26.1078 6.81701 26.1108 6.09955 26.086C5.63723 26.07 5.39974 25.9339 5.20569 25.8228C5.14861 25.7901 5.09507 25.7596 5.04089 25.7349C4.85515 25.6504 4.65938 25.7417 4.4281 25.8497C4.12806 25.9897 3.76808 26.1578 3.29254 26.0059C3.23805 25.9885 3.18465 25.9722 3.13232 25.9568L1.38864 26.1312L1.17552 24C1.58696 22.5972 1.27314 21.9591 1.03363 21.4722C0.960755 21.3241 0.894911 21.1898 0.858335 21.0523C0.739774 20.6065 0.857244 19.9714 1.01849 19.4913C1.14636 19.1107 1.0196 18.3492 0.858335 17.7717C0.797359 17.5533 0.795826 17.258 0.794369 16.9102C0.792861 16.5502 0.791491 16.1338 0.723078 15.6882C0.550198 14.5624 0.466404 13.964 0.399342 13.483C0.380222 13.3459 0.362812 13.2182 0.344653 13.0906C0.287274 12.6874 0.240002 12.187 0.192307 11.6804C0.135229 11.0741 0.0772746 10.4588 -7.96318e-05 9.9906C0.0817835 8.77711 0.183062 7.56352 0.284106 6.35016C0.336565 5.7269 0.632017 5.12888 1.11908 4.68817C1.60654 4.24754 2.24214 4.00004 2.90085 4C3.55958 4 4.19515 4.24756 4.68263 4.68817C5.16969 5.12888 5.46563 5.7269 5.51809 6.35016C5.62265 7.60573 5.72727 8.86156 5.81058 10.1172C5.91205 11.6469 5.98197 13.1766 5.98197 14.7062C5.98196 15.7762 5.96626 16.8463 5.93802 17.9163C5.93511 18.0265 5.93191 18.1367 5.92874 18.2468C6.09094 19.1458 6.23847 20.043 6.29105 20.6751C6.33446 21.1971 6.2479 21.5776 6.17386 21.9034C6.12291 22.1277 6.07782 22.3261 6.085 22.5269C6.08885 22.6347 6.09885 22.782 6.11087 22.9597C6.12997 23.2418 6.15425 23.6007 6.16746 24L3.13232 20.9649C3.75937 20.9441 4.48621 20.9506 5.17273 21.0473C5.67134 21.1176 6.2506 21.256 6.80359 21.3882C7.59431 21.5771 8.33167 21.7533 8.70392 21.6992C9.3576 21.6041 10.1073 21.6846 10.7697 21.7558C11.4015 21.8238 11.9541 21.8831 12.2684 21.7734C12.6439 21.6422 12.9641 21.6957 13.4402 21.7749C13.7705 21.8298 14.1758 21.8968 14.7266 21.9238C15.3625 21.955 15.8124 22.0469 16.1948 22.125C16.7329 22.235 17.1379 22.3176 17.7414 22.1655C18.4118 21.9965 19.1125 21.889 19.6643 21.9424C19.9157 21.9667 20.2032 21.9608 20.5023 21.9546C20.8984 21.9464 21.3149 21.9379 21.6953 21.9985C22.0087 22.0485 22.2677 22.1764 22.4969 22.2895C22.5685 22.3248 22.6371 22.3585 22.7036 22.3882C22.8465 22.3872 22.9894 22.3861 23.1323 22.3845L21.5168 24C21.5157 23.8933 21.5143 23.7866 21.5127 23.6799C21.4921 23.6394 21.4693 23.597 21.4458 23.5526C21.3278 23.33 21.183 23.0564 21.1108 22.7177C20.9967 22.1815 21.0681 21.711 21.144 21.2147C21.2031 20.8282 21.2648 20.4262 21.2427 19.9653C21.2276 19.651 21.1753 19.2931 21.1235 18.9384C21.0466 18.4115 20.9709 17.8912 21.019 17.5297C21.0371 17.3942 21.1174 17.2778 21.1973 17.1625C21.1977 17.162 21.1982 17.1615 21.1987 17.161C21.2041 17.1532 21.2094 17.1453 21.2148 17.1375C21.1536 16.2571 21.0862 15.3766 21.0151 14.4962C20.9945 14.4199 20.9741 14.3428 20.9541 14.2664C20.8562 13.8931 20.761 13.5303 20.6259 13.2938C20.4795 13.0375 20.3944 12.3931 20.3047 11.7139C20.2459 11.2692 20.1852 10.8094 20.104 10.434C20.0565 10.2146 20.1393 10.0064 20.2246 9.79224C20.3042 9.59241 20.3859 9.38724 20.3657 9.16296C20.3556 9.05062 20.3213 8.92929 20.2846 8.7998C20.2524 8.68581 20.2182 8.56528 20.1972 8.43909C20.1778 8.32183 20.2229 8.06072 20.2802 7.72589C20.3157 7.51897 20.3557 7.28387 20.3886 7.03711C20.3371 6.38488 20.2876 5.73255 20.2417 5.08032C20.1691 4.94426 20.075 4.82619 19.9541 4.73273C19.8673 4.66567 19.7637 4.60857 19.6577 4.54993C19.5134 4.47012 19.3644 4.38754 19.2456 4.27374C19.1527 4.1848 19.1157 4.07989 19.1542 4.00946C19.156 4.00624 19.1579 4.00308 19.16 4L23.1323 7.97233C23.104 7.95346 23.0815 7.92319 23.0609 7.89556C23.0347 7.86045 23.0113 7.82923 22.9828 7.83013C22.9622 7.83084 22.9408 7.8557 22.9144 7.88579C22.8724 7.93385 22.8176 7.99589 22.7344 7.9981C22.4245 8.00631 22.0723 7.98645 21.7273 7.96685C21.3436 7.94506 20.9686 7.92391 20.6699 7.94244C20.3352 7.9632 19.8582 7.87089 19.3805 7.77886C19.0472 7.71466 18.7134 7.65077 18.4271 7.62456C18.1465 7.59887 17.8544 7.64993 17.5714 7.69976C17.2318 7.75956 16.9051 7.81733 16.6275 7.73638C16.5714 7.71994 16.5016 7.61987 16.4142 7.49467C16.3522 7.40594 16.2809 7.30449 16.1996 7.21098C15.8463 7.21098 15.4928 7.20687 15.1395 7.19926C15.127 7.21284 15.1142 7.22665 15.1013 7.24076C15.1011 7.24109 15.1009 7.24141 15.1007 7.24174C14.8105 7.56017 14.4133 7.99573 13.8553 7.73589C13.7134 7.66983 13.6242 7.54783 13.5437 7.43803C13.4647 7.3302 13.3941 7.23371 13.2907 7.21342C13.1733 7.19044 13.0347 7.25665 12.8836 7.32865C12.6714 7.42975 12.4345 7.54272 12.1967 7.43754C12.1804 7.43036 12.163 7.42248 12.1448 7.41459C11.9724 7.33977 11.7172 7.22911 11.4633 7.00638C10.71 6.94693 9.95653 6.87731 9.20319 6.8013C7.94743 6.67461 6.69142 6.53015 5.43579 6.38577C4.82491 6.3147 4.23904 6.0114 3.80707 5.52589C3.37507 5.03969 3.13232 4.41483 3.13232 3.76853C3.13236 3.12228 3.3751 2.49782 3.80707 2.01166C4.23905 1.52611 4.82489 1.22285 5.43579 1.15178C6.43194 1.03724 7.42841 0.922527 8.42468 0.816814C8.4769 0.803392 8.52934 0.790409 8.58154 0.778239C8.96991 0.687675 9.33026 0.505779 9.69086 0.323641C9.77368 0.281804 9.85667 0.239876 9.93988 0.199126Z" fill="black"/>
</svg>
