<svg width="27" height="27" viewBox="0 0 27 27" fill="none" xmlns="http://www.w3.org/2000/svg">
<path d="M9.94 0.199126C10.5727 -0.110607 11.7927 0.0158854 12.4638 0.0853548C12.4761 0.0864942 12.4884 0.0876336 12.5007 0.088773C12.66 0.105229 12.8107 0.109503 12.9872 0.114164C13.4081 0.125278 13.9768 0.14037 15.1637 0.337801C15.509 0.330526 15.8544 0.32657 16.1998 0.32657C18.5107 0.326572 20.8216 0.425449 23.1324 0.574037L26.1853 0.268754L26.5584 4C26.4672 5.41856 26.3573 6.83712 26.2399 8.25568C26.2415 8.30279 26.2432 8.3507 26.2448 8.39911C26.2768 9.33451 26.3163 10.4944 26.2033 11.2232C26.0596 12.1498 25.9263 12.7791 25.8112 13.296C25.5631 16.2582 25.3413 19.2205 25.2497 22.1827C25.231 22.7884 25.2178 23.3942 25.2108 24L25.396 25.852L23.1324 26.0784C22.8098 26.0747 22.4871 26.0728 22.1644 26.0728C21.3095 26.0728 20.4544 26.0826 19.5994 26.1011C19.1015 26.1685 18.6282 26.2486 18.1892 26.3228C17.5724 26.4271 17.0232 26.5197 16.5696 26.5499C15.4768 26.6227 14.2371 26.5078 13.3165 26.4224C13.166 26.4085 13.024 26.3953 12.8926 26.3839C12.1614 26.4261 11.4301 26.4714 10.699 26.5176C10.6502 26.4919 10.601 26.4651 10.551 26.4376C9.92697 26.0943 9.15986 26.0987 7.95239 26.105C7.42657 26.1078 6.81713 26.1108 6.09967 26.086C5.63735 26.07 5.39987 25.9339 5.20581 25.8228C5.14873 25.7901 5.09519 25.7596 5.04102 25.7349C4.85527 25.6504 4.6595 25.7417 4.42822 25.8497C4.12818 25.9897 3.7682 26.1578 3.29266 26.0059C3.23818 25.9885 3.18477 25.9722 3.13245 25.9568L1.38876 26.1312L1.17564 24C1.58708 22.5972 1.27326 21.9591 1.03375 21.4722C0.960877 21.3241 0.895033 21.1898 0.858457 21.0523C0.739896 20.6065 0.857367 19.9714 1.01862 19.4913C1.14648 19.1107 1.01972 18.3492 0.858457 17.7717C0.797481 17.5533 0.795948 17.258 0.794491 16.9102C0.792984 16.5502 0.791613 16.1338 0.723201 15.6882C0.55032 14.5624 0.466527 13.964 0.399464 13.483C0.380344 13.3459 0.362934 13.2182 0.344775 13.0906C0.287396 12.6874 0.240124 12.187 0.192429 11.6804C0.135351 11.0741 0.0773966 10.4588 4.24385e-05 9.9906C0.0819056 8.77711 0.183184 7.56352 0.284228 6.35016C0.336687 5.7269 0.632139 5.12888 1.1192 4.68817C1.60666 4.24754 2.24226 4.00004 2.90098 4C3.5597 4 4.19527 4.24756 4.68275 4.68817C5.16981 5.12888 5.46575 5.7269 5.51821 6.35016C5.62277 7.60573 5.72739 8.86156 5.8107 10.1172C5.91217 11.6469 5.98209 13.1766 5.98209 14.7062C5.98209 15.7762 5.96638 16.8463 5.93814 17.9163C5.93523 18.0265 5.93203 18.1367 5.92886 18.2468C6.09106 19.1458 6.23859 20.043 6.29118 20.6751C6.33458 21.1971 6.24802 21.5776 6.17399 21.9034C6.12304 22.1277 6.07794 22.3261 6.08512 22.5269C6.08897 22.6347 6.09898 22.782 6.111 22.9597C6.13009 23.2418 6.15437 23.6007 6.16758 24L3.13245 20.9649C3.75949 20.9441 4.48633 20.9506 5.17285 21.0473C5.67146 21.1176 6.25072 21.256 6.80371 21.3882C7.59443 21.5771 8.33179 21.7533 8.70404 21.6992C9.35772 21.6041 10.1074 21.6846 10.7698 21.7558C11.4016 21.8238 11.9542 21.8831 12.2685 21.7734C12.644 21.6422 12.9643 21.6957 13.4404 21.7749C13.7706 21.8298 14.1759 21.8968 14.7267 21.9238C15.3626 21.955 15.8125 22.0469 16.1949 22.125C16.7331 22.235 17.138 22.3176 17.7415 22.1655C18.4119 21.9965 19.1126 21.889 19.6644 21.9424C19.9158 21.9667 20.2033 21.9608 20.5024 21.9546C20.8985 21.9464 21.315 21.9379 21.6954 21.9985C22.0088 22.0485 22.2679 22.1764 22.4971 22.2895C22.5686 22.3248 22.6372 22.3585 22.7037 22.3882C22.8466 22.3872 22.9895 22.3861 23.1324 22.3845L21.517 24C21.5158 23.8933 21.5144 23.7866 21.5128 23.6799C21.4922 23.6394 21.4694 23.597 21.4459 23.5526C21.3279 23.33 21.1831 23.0564 21.1109 22.7177C20.9968 22.1815 21.0683 21.711 21.1441 21.2147C21.2032 20.8282 21.2649 20.4262 21.2428 19.9653C21.2277 19.651 21.1754 19.2931 21.1236 18.9384C21.0467 18.4115 20.971 17.8912 21.0191 17.5297C21.0372 17.3942 21.1175 17.2778 21.1974 17.1625C21.1979 17.162 21.1983 17.1615 21.1988 17.161C21.2043 17.1532 21.2096 17.1453 21.215 17.1375C21.1538 16.2571 21.0863 15.3766 21.0152 14.4962C20.9946 14.4199 20.9742 14.3428 20.9542 14.2664C20.8563 13.8931 20.7611 13.5303 20.6261 13.2938C20.4797 13.0375 20.3945 12.3931 20.3048 11.7139C20.246 11.2692 20.1853 10.8094 20.1041 10.434C20.0566 10.2146 20.1394 10.0064 20.2247 9.79224C20.3043 9.59241 20.386 9.38724 20.3658 9.16296C20.3557 9.05062 20.3214 8.92929 20.2848 8.7998C20.2525 8.68581 20.2183 8.56528 20.1974 8.43909C20.178 8.32183 20.223 8.06072 20.2804 7.72589C20.3158 7.51897 20.3558 7.28387 20.3888 7.03711C20.3372 6.38488 20.2878 5.73255 20.2418 5.08032C20.1692 4.94426 20.0751 4.82619 19.9542 4.73273C19.8675 4.66567 19.7638 4.60857 19.6578 4.54993C19.5136 4.47012 19.3645 4.38754 19.2457 4.27374C19.1528 4.1848 19.1158 4.07989 19.1544 4.00946C19.1561 4.00624 19.1581 4.00308 19.1601 4L23.1324 7.97233C23.1042 7.95346 23.0817 7.92319 23.061 7.89556C23.0348 7.86045 23.0115 7.82923 22.9829 7.83013C22.9623 7.83084 22.9409 7.8557 22.9146 7.88579C22.8725 7.93385 22.8178 7.99589 22.7345 7.9981C22.4246 8.00631 22.0724 7.98645 21.7274 7.96685C21.3438 7.94506 20.9687 7.92391 20.67 7.94244C20.3353 7.9632 19.8584 7.87089 19.3806 7.77886C19.0473 7.71466 18.7136 7.65077 18.4272 7.62456C18.1466 7.59887 17.8545 7.64993 17.5715 7.69976C17.2319 7.75956 16.9052 7.81733 16.6276 7.73638C16.5715 7.71994 16.5018 7.61987 16.4143 7.49467C16.3523 7.40594 16.281 7.30449 16.1998 7.21098C15.8464 7.21098 15.493 7.20687 15.1396 7.19926C15.1271 7.21284 15.1143 7.22665 15.1014 7.24076C15.1012 7.24109 15.101 7.24141 15.1008 7.24174C14.8106 7.56017 14.4134 7.99573 13.8554 7.73589C13.7136 7.66983 13.6243 7.54783 13.5438 7.43803C13.4648 7.3302 13.3942 7.23371 13.2908 7.21342C13.1734 7.19044 13.0348 7.25665 12.8837 7.32865C12.6716 7.42975 12.4346 7.54272 12.1968 7.43754C12.1805 7.43036 12.1631 7.42248 12.1449 7.41459C11.9725 7.33977 11.7174 7.22911 11.4634 7.00638C10.7101 6.94693 9.95666 6.87731 9.20331 6.8013C7.94756 6.67461 6.69154 6.53015 5.43591 6.38577C4.82503 6.3147 4.23916 6.0114 3.80719 5.52589C3.37519 5.03969 3.13245 4.41483 3.13245 3.76853C3.13248 3.12228 3.37522 2.49782 3.80719 2.01166C4.23917 1.52611 4.82501 1.22285 5.43591 1.15178C6.43206 1.03724 7.42853 0.922527 8.4248 0.816814C8.47702 0.803392 8.52946 0.790409 8.58167 0.778239C8.97003 0.687675 9.33038 0.505779 9.69098 0.323641C9.77381 0.281804 9.85679 0.239876 9.94 0.199126Z" fill="black"/>
<ellipse cx="13.6324" cy="14" rx="11.5" ry="11" fill="black"/>
</svg>
