<svg width="43" height="42" viewBox="0 0 43 42" fill="none" xmlns="http://www.w3.org/2000/svg">
<path d="M32.5228 38.1708C31.9694 38.1649 31.542 37.514 31.3069 37.156C31.3024 37.1495 31.298 37.1431 31.2936 37.1366C31.2377 37.0517 31.1749 36.9813 31.101 36.8992C30.9248 36.7034 30.6868 36.4387 30.3368 35.7397C30.1778 35.5935 30.0216 35.4443 29.869 35.2917C28.2208 33.6435 26.8002 31.7677 25.4246 29.8469C25.4024 29.8275 25.3798 29.8077 25.3569 29.7878C24.9153 29.4027 24.3677 28.925 24.1455 28.503C23.863 27.9665 23.7027 27.5706 23.576 27.2404C22.4862 25.712 21.3731 24.2068 20.145 22.8167C19.76 22.381 19.3636 21.9568 18.9533 21.5465C18.5754 21.1686 18.1888 20.7994 17.7947 20.4379C17.515 20.2774 17.2351 20.139 16.9755 20.0106C16.6107 19.8302 16.2862 19.6693 16.059 19.4955C15.5117 19.0769 15.0654 18.4275 14.734 17.9452C14.6798 17.8664 14.6287 17.7919 14.5807 17.7238C14.2202 17.438 13.857 17.1548 13.493 16.8726C13.4942 16.8283 13.4962 16.7828 13.4984 16.7364C13.5261 16.1572 13.1832 15.822 12.6439 15.294C12.4091 15.0641 12.1371 14.7974 11.8419 14.4584C11.6518 14.24 11.6671 14.0147 11.6795 13.8308C11.6832 13.7767 11.6865 13.726 11.6844 13.6802C11.677 13.5234 11.5097 13.5177 11.3121 13.5108C11.0558 13.502 10.7481 13.4915 10.6722 13.1471C10.4304 12.0496 9.84504 12.0448 9.40224 12.0412C9.27236 12.0401 9.1548 12.039 9.06172 12.0105C8.7599 11.9183 8.58305 11.5338 8.51342 11.1791C8.45822 10.8979 8.00963 10.6734 7.61187 10.5607C7.46147 10.5181 7.32959 10.3889 7.17459 10.2365C7.01419 10.0787 6.82892 9.8959 6.57156 9.75948C5.92119 9.41472 5.58269 9.22435 5.31084 9.07105C5.23334 9.02734 5.16151 8.98629 5.08906 8.94595C4.86015 8.81846 4.59722 8.6391 4.33117 8.45737C4.01279 8.23989 3.68963 8.01918 3.41435 7.88064C2.95042 7.272 2.5036 6.64614 2.05667 6.02059C1.8276 5.69878 1.82445 5.17335 2.06019 4.54807C2.29632 3.92248 2.74873 3.2513 3.33094 2.66906C3.91317 2.08682 4.58435 1.63446 5.20995 1.39831C5.83523 1.16257 6.3611 1.16529 6.68291 1.39436C7.33021 1.85683 7.97769 2.31936 8.60626 2.80067C9.37195 3.38698 10.1098 4.00122 10.7858 4.67722C11.2587 5.15011 11.7177 5.63691 12.1656 6.13476C12.2118 6.18601 12.2576 6.23755 12.3035 6.28903C12.8442 6.54294 13.3711 6.80906 13.6969 7.04194C13.9659 7.23425 14.0576 7.47891 14.1362 7.68838C14.1903 7.83252 14.2381 7.96007 14.3332 8.04247C14.3842 8.08671 14.4582 8.14296 14.5473 8.21084C14.9112 8.48798 15.5292 8.95871 15.8859 9.59522C16.0442 9.87766 16.1778 10.256 16.3054 10.6172C16.4878 11.1337 16.658 11.6153 16.8703 11.732C17.2433 11.9368 17.5034 12.3393 17.7332 12.695C17.9524 13.0343 18.1441 13.331 18.38 13.3729C18.6619 13.4229 18.7562 13.6117 18.8966 13.8921C18.994 14.0865 19.1139 14.3249 19.3335 14.5922C19.587 14.9007 19.7046 15.1808 19.8045 15.4188C19.9452 15.7539 20.051 16.0059 20.4522 16.1382C20.8978 16.2851 21.3026 16.4997 21.4993 16.7908C21.5888 16.9233 21.7211 17.0452 21.8588 17.1719C22.0411 17.3397 22.2327 17.5163 22.3472 17.738C22.4415 17.9207 22.443 18.1482 22.4443 18.3495C22.4447 18.4123 22.4452 18.4724 22.4484 18.528C22.5601 18.6369 22.6726 18.7451 22.7863 18.852C22.8223 18.8517 22.8612 18.8503 22.9016 18.8492C23.1043 18.8432 23.3532 18.8361 23.5667 18.9221C23.9046 19.0581 24.0493 19.3293 24.2016 19.6157C24.3201 19.8387 24.4433 20.0709 24.6666 20.255C24.8188 20.3806 25.0232 20.4925 25.2257 20.6035C25.5265 20.7684 25.8234 20.9314 25.9406 21.1337C25.9845 21.2095 25.965 21.332 25.9453 21.4535C25.9451 21.4542 25.9449 21.4548 25.9447 21.4555C25.9434 21.4637 25.9422 21.4719 25.9409 21.4801C26.384 21.8151 26.8328 22.1446 27.2847 22.4709C27.3366 22.4864 27.3887 22.5024 27.4402 22.5185C27.6917 22.5969 27.9361 22.6732 28.1601 22.6583C28.4027 22.6422 28.7628 22.8517 29.1423 23.0725C29.3908 23.2171 29.6476 23.3667 29.8853 23.4608C30.0242 23.5158 30.0431 23.681 30.0623 23.851C30.0803 24.0097 30.0987 24.1726 30.2157 24.2539C30.2743 24.2945 30.3582 24.3179 30.4478 24.3427C30.5267 24.3646 30.6102 24.3876 30.6845 24.4249C30.7535 24.4595 30.829 24.6148 30.9263 24.8134C30.9864 24.9362 31.055 25.0755 31.1349 25.2136C31.4687 25.4563 31.8007 25.7009 32.1296 25.9485C32.2539 25.9445 32.3893 25.9135 32.5374 25.8479C32.6437 25.8009 32.7606 25.7345 32.8802 25.6667C33.0429 25.5745 33.2112 25.4793 33.3665 25.4245C33.4879 25.3818 33.567 25.3954 33.564 25.4606C33.5626 25.491 33.5438 25.5321 33.5268 25.5693C33.5074 25.6119 33.4901 25.6498 33.5035 25.6617C33.5132 25.6701 33.5447 25.6576 33.5829 25.6427C33.644 25.6188 33.723 25.5881 33.7618 25.623C33.906 25.7527 34.0441 25.9259 34.1792 26.0957C34.3295 26.2845 34.4765 26.4689 34.625 26.5846C34.7912 26.7141 34.9204 27.0065 35.0502 27.299C35.1407 27.503 35.2318 27.707 35.3351 27.8567C35.4365 28.0034 35.6107 28.0874 35.7798 28.1684C35.9827 28.2657 36.1782 28.359 36.2293 28.5532C36.2396 28.5925 36.182 28.7118 36.1099 28.8611C36.0589 28.9669 36.0008 29.0881 35.954 29.2067C36.1102 29.3629 36.2627 29.5227 36.4122 29.6856C36.4297 29.6791 36.4476 29.6725 36.4657 29.6658C36.4661 29.6656 36.4665 29.6654 36.4669 29.6652C36.8766 29.512 37.4371 29.3025 37.454 29.7788C37.4583 29.8999 37.39 30.0472 37.3285 30.1798C37.2681 30.31 37.214 30.4265 37.2417 30.4901C37.2733 30.5623 37.3931 30.565 37.5235 30.5682C37.7066 30.5726 37.9112 30.5775 37.9234 30.7755C37.9242 30.789 37.9249 30.8037 37.926 30.8187C37.936 30.961 37.951 31.1716 37.8664 31.4807C38.1467 31.8662 38.4182 32.2607 38.6839 32.6608C39.1269 33.3278 39.5543 34.0105 39.9816 34.6931C40.1888 35.0259 40.1796 35.5529 39.9414 36.1729C39.7026 36.7936 39.2575 37.4531 38.6863 38.0244C38.1151 38.5956 37.4558 39.0403 36.8352 39.2791C36.2151 39.5173 35.6882 39.5265 35.3554 39.3193C34.8139 38.9803 34.2721 38.6413 33.7384 38.2945C33.7035 38.2832 33.6688 38.2715 33.635 38.2592C33.3833 38.1676 33.0633 38.1692 32.7429 38.1708C32.6693 38.1712 32.5956 38.1715 32.5228 38.1708Z" fill="black"/>
<path d="M3.43575 31.4519C3.4416 30.8985 4.09257 30.4711 4.45056 30.2359C4.45701 30.2315 4.46345 30.2271 4.4699 30.2226C4.55483 30.1668 4.62519 30.104 4.70732 30.0301C4.90317 29.8539 5.16783 29.6159 5.86689 29.2659C6.01308 29.1068 6.16222 28.9507 6.31484 28.7981C7.96305 27.1499 9.83887 25.7293 11.7597 24.3537C11.7791 24.3314 11.7988 24.3088 11.8187 24.286C12.2039 23.8443 12.6815 23.2968 13.1035 23.0746C13.64 22.7921 14.036 22.6318 14.3661 22.5051C15.8946 21.4153 17.3997 20.3021 18.7899 19.074C19.2255 18.6891 19.6498 18.2926 20.0601 17.8823C20.4379 17.5045 20.8071 17.1179 21.1686 16.7237C21.3291 16.4441 21.4675 16.1641 21.5959 15.9045C21.7764 15.5398 21.9372 15.2153 22.111 14.9881C22.5296 14.4408 23.179 13.9944 23.6613 13.663C23.7402 13.6089 23.8146 13.5578 23.8828 13.5098C24.1685 13.1493 24.4517 12.7861 24.734 12.4221C24.7783 12.4233 24.8237 12.4252 24.8702 12.4275C25.4494 12.4551 25.7845 12.1122 26.3125 11.573C26.5424 11.3381 26.8091 11.0661 27.1481 10.771C27.3666 10.5808 27.5918 10.5962 27.7758 10.6086C27.8299 10.6122 27.8805 10.6156 27.9263 10.6134C28.0831 10.6061 28.0889 10.4388 28.0957 10.2412C28.1045 9.98485 28.115 9.67711 28.4594 9.60124C29.5569 9.35945 29.5617 8.7741 29.5654 8.3313C29.5664 8.20142 29.5676 8.08387 29.596 7.99078C29.6882 7.68897 30.0727 7.51211 30.4274 7.44248C30.7086 7.38729 30.9332 6.93869 31.0459 6.54093C31.0885 6.39053 31.2176 6.25866 31.3701 6.10365C31.5278 5.94325 31.7106 5.75798 31.8471 5.50062C32.1918 4.85025 32.3822 4.51176 32.5355 4.23991C32.5792 4.1624 32.6202 4.09057 32.6606 4.01813C32.7881 3.78921 32.9674 3.52628 33.1492 3.26023C33.3666 2.94185 33.5874 2.61869 33.7259 2.34341C34.3345 1.87948 34.9604 1.43266 35.5859 0.985736C35.9078 0.756665 36.4332 0.753516 37.0585 0.989256C37.6841 1.22538 38.3552 1.6778 38.9375 2.26C39.5197 2.84223 39.9721 3.51341 40.2082 4.13901C40.444 4.76429 40.4412 5.29016 40.2122 5.61197C39.7497 6.25927 39.2872 6.90675 38.8059 7.53533C38.2196 8.30102 37.6053 9.03886 36.9293 9.71485C36.4564 10.1877 35.9696 10.6468 35.4718 11.0947C35.4205 11.1408 35.369 11.1867 35.3175 11.2326C35.0636 11.7732 34.7975 12.3001 34.5646 12.626C34.3723 12.895 34.1276 12.9867 33.9182 13.0652C33.774 13.1193 33.6465 13.1672 33.5641 13.2622C33.5198 13.3133 33.4636 13.3872 33.3957 13.4764C33.1186 13.8403 32.6478 14.4583 32.0113 14.815C31.7289 14.9733 31.3505 15.1069 30.9893 15.2345C30.4728 15.4169 29.9913 15.5871 29.8746 15.7994C29.6697 16.1723 29.2673 16.4325 28.9116 16.6623C28.5722 16.8814 28.2756 17.0732 28.2337 17.3091C28.1837 17.591 27.9949 17.6852 27.7145 17.8257C27.52 17.9231 27.2816 18.0429 27.0144 18.2625C26.7058 18.516 26.4257 18.6336 26.1877 18.7336C25.8526 18.8742 25.6006 18.9801 25.4684 19.3813C25.3214 19.8269 25.1068 20.2316 24.8158 20.4283C24.6832 20.5179 24.5614 20.6502 24.4346 20.7879C24.2669 20.9702 24.0903 21.1618 23.8686 21.2762C23.6859 21.3706 23.4584 21.372 23.257 21.3733C23.1942 21.3737 23.1341 21.3743 23.0786 21.3774C22.9697 21.4892 22.8615 21.6016 22.7545 21.7153C22.7548 21.7514 22.7562 21.7903 22.7574 21.8307C22.7634 22.0334 22.7704 22.2823 22.6844 22.4958C22.5484 22.8336 22.2773 22.9784 21.9909 23.1306C21.7679 23.2492 21.5357 23.3724 21.3515 23.5956C21.226 23.7479 21.114 23.9522 21.003 24.1548C20.8381 24.4556 20.6751 24.7524 20.4728 24.8697C20.397 24.9136 20.2746 24.8941 20.153 24.8744C20.1524 24.8742 20.1517 24.874 20.1511 24.8738C20.1428 24.8724 20.1347 24.8712 20.1264 24.8699C19.7914 25.3131 19.4619 25.7619 19.1356 26.2137C19.1202 26.2657 19.1041 26.3178 19.088 26.3693C19.0096 26.6208 18.9334 26.8652 18.9482 27.0891C18.9644 27.3318 18.7548 27.6919 18.534 28.0713C18.3894 28.3198 18.2399 28.5767 18.1457 28.8144C18.0907 28.9533 17.9256 28.9721 17.7555 28.9914C17.5968 29.0093 17.4339 29.0278 17.3527 29.1448C17.312 29.2034 17.2887 29.2873 17.2638 29.3769C17.242 29.4558 17.2189 29.5393 17.1817 29.6136C17.147 29.6825 16.9918 29.7581 16.7931 29.8554C16.6703 29.9155 16.5311 29.984 16.3929 30.064C16.1502 30.3978 15.9056 30.7298 15.658 31.0587C15.662 31.1829 15.6931 31.3183 15.7586 31.4665C15.8056 31.5728 15.872 31.6897 15.9398 31.8093C16.032 31.972 16.1272 32.1402 16.182 32.2956C16.2248 32.417 16.2111 32.496 16.1459 32.4931C16.1155 32.4917 16.0744 32.4729 16.0372 32.4559C15.9946 32.4364 15.9567 32.4192 15.9449 32.4326C15.9364 32.4423 15.9489 32.4737 15.9639 32.512C15.9877 32.5731 16.0184 32.6521 15.9836 32.6908C15.8539 32.835 15.6807 32.9731 15.5109 33.1083C15.322 33.2586 15.1376 33.4056 15.022 33.554C14.8924 33.7203 14.6 33.8495 14.3075 33.9793C14.1035 34.0698 13.8995 34.1608 13.7498 34.2642C13.6031 34.3655 13.5191 34.5398 13.4381 34.7089C13.3409 34.9118 13.2476 35.1072 13.0533 35.1584C13.014 35.1687 12.8947 35.111 12.7454 35.039C12.6396 34.988 12.5184 34.9298 12.3999 34.8831C12.2437 35.0392 12.0839 35.1918 11.921 35.3412C11.9275 35.3588 11.934 35.3766 11.9408 35.3948C11.941 35.3952 11.9412 35.3955 11.9414 35.3959C12.0946 35.8057 12.304 36.3662 11.8277 36.3831C11.7067 36.3874 11.5594 36.319 11.4268 36.2575C11.2965 36.1971 11.18 36.1431 11.1164 36.1708C11.0442 36.2024 11.0415 36.3222 11.0384 36.4526C11.034 36.6357 11.0291 36.8403 10.831 36.8524C10.8175 36.8532 10.8028 36.854 10.7878 36.8551C10.6455 36.8651 10.4349 36.8801 10.1258 36.7954C9.74035 37.0758 9.34584 37.3472 8.94572 37.613C8.27877 38.056 7.596 38.4834 6.91347 38.9107C6.58068 39.1178 6.05368 39.1087 5.43364 38.8704C4.81297 38.6316 4.1534 38.1866 3.58214 37.6153C3.01094 37.0441 2.56627 36.3849 2.32747 35.7643C2.08921 35.1442 2.08007 34.6172 2.28724 34.2844C2.62623 33.743 2.96522 33.2012 3.31208 32.6675C3.32329 32.6325 3.33499 32.5979 3.34731 32.564C3.4389 32.3124 3.43737 31.9923 3.43575 31.672C3.43537 31.5984 3.43499 31.5247 3.43575 31.4519Z" fill="black"/>
</svg>
